<mxfile host="app.diagrams.net" modified="2023-05-18T15:18:25.450Z" agent="Mozilla/5.0 (Windows NT 10.0; Win64; x64) AppleWebKit/537.36 (KHTML, like Gecko) Chrome/113.0.0.0 Safari/537.36" etag="4cwl2wbtf6ySIyE29LVK" version="21.3.2" type="github">
  <diagram id="L7MIWZaFchMFNF4nSB8t" name="Page-1">
    <mxGraphModel dx="3649" dy="192" grid="0" gridSize="10" guides="1" tooltips="1" connect="1" arrows="1" fold="1" page="0" pageScale="1" pageWidth="827" pageHeight="1169" background="#F1FAEE" math="0" shadow="0">
      <root>
        <mxCell id="0" />
        <mxCell id="1" parent="0" />
        <mxCell id="Ln-0qqn0iWtLyIjcQI3Q-75" value="Suscripción" style="swimlane;fontStyle=0;childLayout=stackLayout;horizontal=1;startSize=30;horizontalStack=0;resizeParent=1;resizeParentMax=0;resizeLast=0;collapsible=1;marginBottom=0;whiteSpace=wrap;html=1;" parent="1" vertex="1">
          <mxGeometry x="667" y="524" width="140" height="180" as="geometry">
            <mxRectangle x="340" y="270" width="100" height="30" as="alternateBounds" />
          </mxGeometry>
        </mxCell>
        <mxCell id="Ln-0qqn0iWtLyIjcQI3Q-76" value="ID Suscripción&lt;span style=&quot;white-space: pre;&quot;&gt; &lt;/span&gt;" style="text;strokeColor=none;fillColor=none;align=left;verticalAlign=middle;spacingLeft=4;spacingRight=4;overflow=hidden;points=[[0,0.5],[1,0.5]];portConstraint=eastwest;rotatable=0;whiteSpace=wrap;html=1;fontStyle=1" parent="Ln-0qqn0iWtLyIjcQI3Q-75" vertex="1">
          <mxGeometry y="30" width="140" height="30" as="geometry" />
        </mxCell>
        <mxCell id="Ln-0qqn0iWtLyIjcQI3Q-77" value="Fecha Pago" style="text;strokeColor=none;fillColor=none;align=left;verticalAlign=middle;spacingLeft=4;spacingRight=4;overflow=hidden;points=[[0,0.5],[1,0.5]];portConstraint=eastwest;rotatable=0;whiteSpace=wrap;html=1;" parent="Ln-0qqn0iWtLyIjcQI3Q-75" vertex="1">
          <mxGeometry y="60" width="140" height="30" as="geometry" />
        </mxCell>
        <mxCell id="Ln-0qqn0iWtLyIjcQI3Q-78" value="Vencimiento" style="text;strokeColor=none;fillColor=none;align=left;verticalAlign=middle;spacingLeft=4;spacingRight=4;overflow=hidden;points=[[0,0.5],[1,0.5]];portConstraint=eastwest;rotatable=0;whiteSpace=wrap;html=1;" parent="Ln-0qqn0iWtLyIjcQI3Q-75" vertex="1">
          <mxGeometry y="90" width="140" height="30" as="geometry" />
        </mxCell>
        <mxCell id="Ln-0qqn0iWtLyIjcQI3Q-79" value="Costo mensual" style="text;strokeColor=none;fillColor=none;align=left;verticalAlign=middle;spacingLeft=4;spacingRight=4;overflow=hidden;points=[[0,0.5],[1,0.5]];portConstraint=eastwest;rotatable=0;whiteSpace=wrap;html=1;" parent="Ln-0qqn0iWtLyIjcQI3Q-75" vertex="1">
          <mxGeometry y="120" width="140" height="30" as="geometry" />
        </mxCell>
        <mxCell id="Ln-0qqn0iWtLyIjcQI3Q-80" value="Descuento" style="text;strokeColor=none;fillColor=none;align=left;verticalAlign=middle;spacingLeft=4;spacingRight=4;overflow=hidden;points=[[0,0.5],[1,0.5]];portConstraint=eastwest;rotatable=0;whiteSpace=wrap;html=1;" parent="Ln-0qqn0iWtLyIjcQI3Q-75" vertex="1">
          <mxGeometry y="150" width="140" height="30" as="geometry" />
        </mxCell>
        <mxCell id="Ln-0qqn0iWtLyIjcQI3Q-81" value="Cuenta" style="swimlane;fontStyle=0;childLayout=stackLayout;horizontal=1;startSize=30;horizontalStack=0;resizeParent=1;resizeParentMax=0;resizeLast=0;collapsible=1;marginBottom=0;whiteSpace=wrap;html=1;" parent="1" vertex="1">
          <mxGeometry x="307" y="524" width="140" height="240" as="geometry">
            <mxRectangle x="340" y="270" width="100" height="30" as="alternateBounds" />
          </mxGeometry>
        </mxCell>
        <mxCell id="Ln-0qqn0iWtLyIjcQI3Q-82" value="ID Cuenta" style="text;strokeColor=none;fillColor=none;align=left;verticalAlign=middle;spacingLeft=4;spacingRight=4;overflow=hidden;points=[[0,0.5],[1,0.5]];portConstraint=eastwest;rotatable=0;whiteSpace=wrap;html=1;fontStyle=1" parent="Ln-0qqn0iWtLyIjcQI3Q-81" vertex="1">
          <mxGeometry y="30" width="140" height="30" as="geometry" />
        </mxCell>
        <mxCell id="Ln-0qqn0iWtLyIjcQI3Q-83" value="IP" style="text;strokeColor=none;fillColor=none;align=left;verticalAlign=middle;spacingLeft=4;spacingRight=4;overflow=hidden;points=[[0,0.5],[1,0.5]];portConstraint=eastwest;rotatable=0;whiteSpace=wrap;html=1;" parent="Ln-0qqn0iWtLyIjcQI3Q-81" vertex="1">
          <mxGeometry y="60" width="140" height="30" as="geometry" />
        </mxCell>
        <mxCell id="Ln-0qqn0iWtLyIjcQI3Q-84" value="Situación cuenta" style="text;strokeColor=none;fillColor=none;align=left;verticalAlign=middle;spacingLeft=4;spacingRight=4;overflow=hidden;points=[[0,0.5],[1,0.5]];portConstraint=eastwest;rotatable=0;whiteSpace=wrap;html=1;" parent="Ln-0qqn0iWtLyIjcQI3Q-81" vertex="1">
          <mxGeometry y="90" width="140" height="30" as="geometry" />
        </mxCell>
        <mxCell id="Ln-0qqn0iWtLyIjcQI3Q-85" value="Fecha registro" style="text;strokeColor=none;fillColor=none;align=left;verticalAlign=middle;spacingLeft=4;spacingRight=4;overflow=hidden;points=[[0,0.5],[1,0.5]];portConstraint=eastwest;rotatable=0;whiteSpace=wrap;html=1;" parent="Ln-0qqn0iWtLyIjcQI3Q-81" vertex="1">
          <mxGeometry y="120" width="140" height="30" as="geometry" />
        </mxCell>
        <mxCell id="Ln-0qqn0iWtLyIjcQI3Q-86" value="Método de pago" style="text;strokeColor=none;fillColor=none;align=left;verticalAlign=middle;spacingLeft=4;spacingRight=4;overflow=hidden;points=[[0,0.5],[1,0.5]];portConstraint=eastwest;rotatable=0;whiteSpace=wrap;html=1;" parent="Ln-0qqn0iWtLyIjcQI3Q-81" vertex="1">
          <mxGeometry y="150" width="140" height="30" as="geometry" />
        </mxCell>
        <mxCell id="Ln-0qqn0iWtLyIjcQI3Q-87" value="Contraseña" style="text;strokeColor=none;fillColor=none;align=left;verticalAlign=middle;spacingLeft=4;spacingRight=4;overflow=hidden;points=[[0,0.5],[1,0.5]];portConstraint=eastwest;rotatable=0;whiteSpace=wrap;html=1;" parent="Ln-0qqn0iWtLyIjcQI3Q-81" vertex="1">
          <mxGeometry y="180" width="140" height="30" as="geometry" />
        </mxCell>
        <mxCell id="Ln-0qqn0iWtLyIjcQI3Q-88" value="Correo" style="text;strokeColor=none;fillColor=none;align=left;verticalAlign=middle;spacingLeft=4;spacingRight=4;overflow=hidden;points=[[0,0.5],[1,0.5]];portConstraint=eastwest;rotatable=0;whiteSpace=wrap;html=1;" parent="Ln-0qqn0iWtLyIjcQI3Q-81" vertex="1">
          <mxGeometry y="210" width="140" height="30" as="geometry" />
        </mxCell>
        <mxCell id="Ln-0qqn0iWtLyIjcQI3Q-89" value="Usuario" style="swimlane;fontStyle=0;childLayout=stackLayout;horizontal=1;startSize=30;horizontalStack=0;resizeParent=1;resizeParentMax=0;resizeLast=0;collapsible=1;marginBottom=0;whiteSpace=wrap;html=1;" parent="1" vertex="1">
          <mxGeometry x="307" y="919" width="140" height="150" as="geometry">
            <mxRectangle x="340" y="270" width="100" height="30" as="alternateBounds" />
          </mxGeometry>
        </mxCell>
        <mxCell id="Ln-0qqn0iWtLyIjcQI3Q-90" value="ID Usuario&lt;span style=&quot;white-space: pre;&quot;&gt; &lt;/span&gt;" style="text;strokeColor=none;fillColor=none;align=left;verticalAlign=middle;spacingLeft=4;spacingRight=4;overflow=hidden;points=[[0,0.5],[1,0.5]];portConstraint=eastwest;rotatable=0;whiteSpace=wrap;html=1;fontStyle=1" parent="Ln-0qqn0iWtLyIjcQI3Q-89" vertex="1">
          <mxGeometry y="30" width="140" height="30" as="geometry" />
        </mxCell>
        <mxCell id="Ln-0qqn0iWtLyIjcQI3Q-91" value="Idioma config" style="text;strokeColor=none;fillColor=none;align=left;verticalAlign=middle;spacingLeft=4;spacingRight=4;overflow=hidden;points=[[0,0.5],[1,0.5]];portConstraint=eastwest;rotatable=0;whiteSpace=wrap;html=1;" parent="Ln-0qqn0iWtLyIjcQI3Q-89" vertex="1">
          <mxGeometry y="60" width="140" height="30" as="geometry" />
        </mxCell>
        <mxCell id="Ln-0qqn0iWtLyIjcQI3Q-92" value="Nombre" style="text;strokeColor=none;fillColor=none;align=left;verticalAlign=middle;spacingLeft=4;spacingRight=4;overflow=hidden;points=[[0,0.5],[1,0.5]];portConstraint=eastwest;rotatable=0;whiteSpace=wrap;html=1;" parent="Ln-0qqn0iWtLyIjcQI3Q-89" vertex="1">
          <mxGeometry y="90" width="140" height="30" as="geometry" />
        </mxCell>
        <mxCell id="Ln-0qqn0iWtLyIjcQI3Q-93" value="Menor de edad" style="text;strokeColor=none;fillColor=none;align=left;verticalAlign=middle;spacingLeft=4;spacingRight=4;overflow=hidden;points=[[0,0.5],[1,0.5]];portConstraint=eastwest;rotatable=0;whiteSpace=wrap;html=1;" parent="Ln-0qqn0iWtLyIjcQI3Q-89" vertex="1">
          <mxGeometry y="120" width="140" height="30" as="geometry" />
        </mxCell>
        <mxCell id="Ln-0qqn0iWtLyIjcQI3Q-94" value="Contenido" style="swimlane;fontStyle=0;childLayout=stackLayout;horizontal=1;startSize=30;horizontalStack=0;resizeParent=1;resizeParentMax=0;resizeLast=0;collapsible=1;marginBottom=0;whiteSpace=wrap;html=1;" parent="1" vertex="1">
          <mxGeometry x="839" y="829" width="140" height="240" as="geometry">
            <mxRectangle x="340" y="270" width="100" height="30" as="alternateBounds" />
          </mxGeometry>
        </mxCell>
        <mxCell id="Ln-0qqn0iWtLyIjcQI3Q-95" value="Título original" style="text;strokeColor=none;fillColor=none;align=left;verticalAlign=middle;spacingLeft=4;spacingRight=4;overflow=hidden;points=[[0,0.5],[1,0.5]];portConstraint=eastwest;rotatable=0;whiteSpace=wrap;html=1;fontStyle=1" parent="Ln-0qqn0iWtLyIjcQI3Q-94" vertex="1">
          <mxGeometry y="30" width="140" height="30" as="geometry" />
        </mxCell>
        <mxCell id="Ln-0qqn0iWtLyIjcQI3Q-96" value="Reparto" style="text;strokeColor=none;fillColor=none;align=left;verticalAlign=middle;spacingLeft=4;spacingRight=4;overflow=hidden;points=[[0,0.5],[1,0.5]];portConstraint=eastwest;rotatable=0;whiteSpace=wrap;html=1;" parent="Ln-0qqn0iWtLyIjcQI3Q-94" vertex="1">
          <mxGeometry y="60" width="140" height="30" as="geometry" />
        </mxCell>
        <mxCell id="Ln-0qqn0iWtLyIjcQI3Q-97" value="Productor" style="text;strokeColor=none;fillColor=none;align=left;verticalAlign=middle;spacingLeft=4;spacingRight=4;overflow=hidden;points=[[0,0.5],[1,0.5]];portConstraint=eastwest;rotatable=0;whiteSpace=wrap;html=1;" parent="Ln-0qqn0iWtLyIjcQI3Q-94" vertex="1">
          <mxGeometry y="90" width="140" height="30" as="geometry" />
        </mxCell>
        <mxCell id="Ln-0qqn0iWtLyIjcQI3Q-98" value="Duración" style="text;strokeColor=none;fillColor=none;align=left;verticalAlign=middle;spacingLeft=4;spacingRight=4;overflow=hidden;points=[[0,0.5],[1,0.5]];portConstraint=eastwest;rotatable=0;whiteSpace=wrap;html=1;" parent="Ln-0qqn0iWtLyIjcQI3Q-94" vertex="1">
          <mxGeometry y="120" width="140" height="30" as="geometry" />
        </mxCell>
        <mxCell id="Ln-0qqn0iWtLyIjcQI3Q-99" value="Calificación" style="text;strokeColor=none;fillColor=none;align=left;verticalAlign=middle;spacingLeft=4;spacingRight=4;overflow=hidden;points=[[0,0.5],[1,0.5]];portConstraint=eastwest;rotatable=0;whiteSpace=wrap;html=1;" parent="Ln-0qqn0iWtLyIjcQI3Q-94" vertex="1">
          <mxGeometry y="150" width="140" height="30" as="geometry" />
        </mxCell>
        <mxCell id="Ln-0qqn0iWtLyIjcQI3Q-100" value="Director" style="text;strokeColor=none;fillColor=none;align=left;verticalAlign=middle;spacingLeft=4;spacingRight=4;overflow=hidden;points=[[0,0.5],[1,0.5]];portConstraint=eastwest;rotatable=0;whiteSpace=wrap;html=1;" parent="Ln-0qqn0iWtLyIjcQI3Q-94" vertex="1">
          <mxGeometry y="180" width="140" height="30" as="geometry" />
        </mxCell>
        <mxCell id="Ln-0qqn0iWtLyIjcQI3Q-101" value="Tema" style="text;strokeColor=none;fillColor=none;align=left;verticalAlign=middle;spacingLeft=4;spacingRight=4;overflow=hidden;points=[[0,0.5],[1,0.5]];portConstraint=eastwest;rotatable=0;whiteSpace=wrap;html=1;" parent="Ln-0qqn0iWtLyIjcQI3Q-94" vertex="1">
          <mxGeometry y="210" width="140" height="30" as="geometry" />
        </mxCell>
        <mxCell id="Ln-0qqn0iWtLyIjcQI3Q-102" value="Abona" style="swimlane;fontStyle=0;childLayout=stackLayout;horizontal=1;startSize=30;horizontalStack=0;resizeParent=1;resizeParentMax=0;resizeLast=0;collapsible=1;marginBottom=0;whiteSpace=wrap;html=1;" parent="1" vertex="1">
          <mxGeometry x="487" y="524" width="140" height="90" as="geometry">
            <mxRectangle x="340" y="270" width="100" height="30" as="alternateBounds" />
          </mxGeometry>
        </mxCell>
        <mxCell id="Ln-0qqn0iWtLyIjcQI3Q-103" value="ID Suscripción" style="text;strokeColor=none;fillColor=none;align=left;verticalAlign=middle;spacingLeft=4;spacingRight=4;overflow=hidden;points=[[0,0.5],[1,0.5]];portConstraint=eastwest;rotatable=0;whiteSpace=wrap;html=1;fontStyle=1" parent="Ln-0qqn0iWtLyIjcQI3Q-102" vertex="1">
          <mxGeometry y="30" width="140" height="30" as="geometry" />
        </mxCell>
        <mxCell id="Ln-0qqn0iWtLyIjcQI3Q-104" value="&lt;span style=&quot;font-weight: normal;&quot;&gt;ID Cuenta&lt;/span&gt;" style="text;strokeColor=none;fillColor=none;align=left;verticalAlign=middle;spacingLeft=4;spacingRight=4;overflow=hidden;points=[[0,0.5],[1,0.5]];portConstraint=eastwest;rotatable=0;whiteSpace=wrap;html=1;fontStyle=1" parent="Ln-0qqn0iWtLyIjcQI3Q-102" vertex="1">
          <mxGeometry y="60" width="140" height="30" as="geometry" />
        </mxCell>
        <mxCell id="Ln-0qqn0iWtLyIjcQI3Q-105" value="Tiene Usuarios" style="swimlane;fontStyle=0;childLayout=stackLayout;horizontal=1;startSize=30;horizontalStack=0;resizeParent=1;resizeParentMax=0;resizeLast=0;collapsible=1;marginBottom=0;whiteSpace=wrap;html=1;" parent="1" vertex="1">
          <mxGeometry x="307" y="804" width="140" height="90" as="geometry">
            <mxRectangle x="340" y="270" width="100" height="30" as="alternateBounds" />
          </mxGeometry>
        </mxCell>
        <mxCell id="Ln-0qqn0iWtLyIjcQI3Q-106" value="ID Usuario" style="text;strokeColor=none;fillColor=none;align=left;verticalAlign=middle;spacingLeft=4;spacingRight=4;overflow=hidden;points=[[0,0.5],[1,0.5]];portConstraint=eastwest;rotatable=0;whiteSpace=wrap;html=1;fontStyle=1" parent="Ln-0qqn0iWtLyIjcQI3Q-105" vertex="1">
          <mxGeometry y="30" width="140" height="30" as="geometry" />
        </mxCell>
        <mxCell id="Ln-0qqn0iWtLyIjcQI3Q-107" value="ID Cuenta" style="text;strokeColor=none;fillColor=none;align=left;verticalAlign=middle;spacingLeft=4;spacingRight=4;overflow=hidden;points=[[0,0.5],[1,0.5]];portConstraint=eastwest;rotatable=0;whiteSpace=wrap;html=1;" parent="Ln-0qqn0iWtLyIjcQI3Q-105" vertex="1">
          <mxGeometry y="60" width="140" height="30" as="geometry" />
        </mxCell>
        <mxCell id="Ln-0qqn0iWtLyIjcQI3Q-108" value="Asocia" style="swimlane;fontStyle=0;childLayout=stackLayout;horizontal=1;startSize=30;horizontalStack=0;resizeParent=1;resizeParentMax=0;resizeLast=0;collapsible=1;marginBottom=0;whiteSpace=wrap;html=1;" parent="1" vertex="1">
          <mxGeometry x="307" y="1105" width="140" height="90" as="geometry">
            <mxRectangle x="340" y="270" width="100" height="30" as="alternateBounds" />
          </mxGeometry>
        </mxCell>
        <mxCell id="Ln-0qqn0iWtLyIjcQI3Q-109" value="ID Usuario" style="text;strokeColor=none;fillColor=none;align=left;verticalAlign=middle;spacingLeft=4;spacingRight=4;overflow=hidden;points=[[0,0.5],[1,0.5]];portConstraint=eastwest;rotatable=0;whiteSpace=wrap;html=1;fontStyle=1" parent="Ln-0qqn0iWtLyIjcQI3Q-108" vertex="1">
          <mxGeometry y="30" width="140" height="30" as="geometry" />
        </mxCell>
        <mxCell id="Ln-0qqn0iWtLyIjcQI3Q-110" value="ID Dispositivo" style="text;strokeColor=none;fillColor=none;align=left;verticalAlign=middle;spacingLeft=4;spacingRight=4;overflow=hidden;points=[[0,0.5],[1,0.5]];portConstraint=eastwest;rotatable=0;whiteSpace=wrap;html=1;" parent="Ln-0qqn0iWtLyIjcQI3Q-108" vertex="1">
          <mxGeometry y="60" width="140" height="30" as="geometry" />
        </mxCell>
        <mxCell id="Ln-0qqn0iWtLyIjcQI3Q-111" value="Historial reproducción" style="swimlane;fontStyle=0;childLayout=stackLayout;horizontal=1;startSize=30;horizontalStack=0;resizeParent=1;resizeParentMax=0;resizeLast=0;collapsible=1;marginBottom=0;whiteSpace=wrap;html=1;" parent="1" vertex="1">
          <mxGeometry x="493" y="1014" width="140" height="150" as="geometry">
            <mxRectangle x="340" y="270" width="100" height="30" as="alternateBounds" />
          </mxGeometry>
        </mxCell>
        <mxCell id="Ln-0qqn0iWtLyIjcQI3Q-112" value="ID Usuario" style="text;strokeColor=none;fillColor=none;align=left;verticalAlign=middle;spacingLeft=4;spacingRight=4;overflow=hidden;points=[[0,0.5],[1,0.5]];portConstraint=eastwest;rotatable=0;whiteSpace=wrap;html=1;fontStyle=1" parent="Ln-0qqn0iWtLyIjcQI3Q-111" vertex="1">
          <mxGeometry y="30" width="140" height="30" as="geometry" />
        </mxCell>
        <mxCell id="Ln-0qqn0iWtLyIjcQI3Q-113" value="Título original" style="text;strokeColor=none;fillColor=none;align=left;verticalAlign=middle;spacingLeft=4;spacingRight=4;overflow=hidden;points=[[0,0.5],[1,0.5]];portConstraint=eastwest;rotatable=0;whiteSpace=wrap;html=1;" parent="Ln-0qqn0iWtLyIjcQI3Q-111" vertex="1">
          <mxGeometry y="60" width="140" height="30" as="geometry" />
        </mxCell>
        <mxCell id="Ln-0qqn0iWtLyIjcQI3Q-114" value="Tiempo visto" style="text;strokeColor=none;fillColor=none;align=left;verticalAlign=middle;spacingLeft=4;spacingRight=4;overflow=hidden;points=[[0,0.5],[1,0.5]];portConstraint=eastwest;rotatable=0;whiteSpace=wrap;html=1;" parent="Ln-0qqn0iWtLyIjcQI3Q-111" vertex="1">
          <mxGeometry y="90" width="140" height="30" as="geometry" />
        </mxCell>
        <mxCell id="Ln-0qqn0iWtLyIjcQI3Q-115" value="Valoración" style="text;strokeColor=none;fillColor=none;align=left;verticalAlign=middle;spacingLeft=4;spacingRight=4;overflow=hidden;points=[[0,0.5],[1,0.5]];portConstraint=eastwest;rotatable=0;whiteSpace=wrap;html=1;" parent="Ln-0qqn0iWtLyIjcQI3Q-111" vertex="1">
          <mxGeometry y="120" width="140" height="30" as="geometry" />
        </mxCell>
        <mxCell id="Ln-0qqn0iWtLyIjcQI3Q-116" value="Lista favoritos" style="swimlane;fontStyle=0;childLayout=stackLayout;horizontal=1;startSize=30;horizontalStack=0;resizeParent=1;resizeParentMax=0;resizeLast=0;collapsible=1;marginBottom=0;whiteSpace=wrap;html=1;" parent="1" vertex="1">
          <mxGeometry x="493" y="814" width="140" height="90" as="geometry">
            <mxRectangle x="340" y="270" width="100" height="30" as="alternateBounds" />
          </mxGeometry>
        </mxCell>
        <mxCell id="Ln-0qqn0iWtLyIjcQI3Q-117" value="ID Usuario" style="text;strokeColor=none;fillColor=none;align=left;verticalAlign=middle;spacingLeft=4;spacingRight=4;overflow=hidden;points=[[0,0.5],[1,0.5]];portConstraint=eastwest;rotatable=0;whiteSpace=wrap;html=1;fontStyle=1" parent="Ln-0qqn0iWtLyIjcQI3Q-116" vertex="1">
          <mxGeometry y="30" width="140" height="30" as="geometry" />
        </mxCell>
        <mxCell id="Ln-0qqn0iWtLyIjcQI3Q-118" value="Título original" style="text;strokeColor=none;fillColor=none;align=left;verticalAlign=middle;spacingLeft=4;spacingRight=4;overflow=hidden;points=[[0,0.5],[1,0.5]];portConstraint=eastwest;rotatable=0;whiteSpace=wrap;html=1;" parent="Ln-0qqn0iWtLyIjcQI3Q-116" vertex="1">
          <mxGeometry y="60" width="140" height="30" as="geometry" />
        </mxCell>
        <mxCell id="Ln-0qqn0iWtLyIjcQI3Q-120" value="Descargar" style="swimlane;fontStyle=0;childLayout=stackLayout;horizontal=1;startSize=30;horizontalStack=0;resizeParent=1;resizeParentMax=0;resizeLast=0;collapsible=1;marginBottom=0;whiteSpace=wrap;html=1;" parent="1" vertex="1">
          <mxGeometry x="653" y="859" width="140" height="180" as="geometry">
            <mxRectangle x="340" y="270" width="100" height="30" as="alternateBounds" />
          </mxGeometry>
        </mxCell>
        <mxCell id="Ln-0qqn0iWtLyIjcQI3Q-121" value="ID Usuario" style="text;strokeColor=none;fillColor=none;align=left;verticalAlign=middle;spacingLeft=4;spacingRight=4;overflow=hidden;points=[[0,0.5],[1,0.5]];portConstraint=eastwest;rotatable=0;whiteSpace=wrap;html=1;fontStyle=1" parent="Ln-0qqn0iWtLyIjcQI3Q-120" vertex="1">
          <mxGeometry y="30" width="140" height="30" as="geometry" />
        </mxCell>
        <mxCell id="Ln-0qqn0iWtLyIjcQI3Q-122" value="Título original" style="text;strokeColor=none;fillColor=none;align=left;verticalAlign=middle;spacingLeft=4;spacingRight=4;overflow=hidden;points=[[0,0.5],[1,0.5]];portConstraint=eastwest;rotatable=0;whiteSpace=wrap;html=1;" parent="Ln-0qqn0iWtLyIjcQI3Q-120" vertex="1">
          <mxGeometry y="60" width="140" height="30" as="geometry" />
        </mxCell>
        <mxCell id="Ln-0qqn0iWtLyIjcQI3Q-123" value="Descargas" style="text;strokeColor=none;fillColor=none;align=left;verticalAlign=middle;spacingLeft=4;spacingRight=4;overflow=hidden;points=[[0,0.5],[1,0.5]];portConstraint=eastwest;rotatable=0;whiteSpace=wrap;html=1;" parent="Ln-0qqn0iWtLyIjcQI3Q-120" vertex="1">
          <mxGeometry y="90" width="140" height="30" as="geometry" />
        </mxCell>
        <mxCell id="Ln-0qqn0iWtLyIjcQI3Q-124" value="Duración" style="text;strokeColor=none;fillColor=none;align=left;verticalAlign=middle;spacingLeft=4;spacingRight=4;overflow=hidden;points=[[0,0.5],[1,0.5]];portConstraint=eastwest;rotatable=0;whiteSpace=wrap;html=1;" parent="Ln-0qqn0iWtLyIjcQI3Q-120" vertex="1">
          <mxGeometry y="120" width="140" height="30" as="geometry" />
        </mxCell>
        <mxCell id="Ln-0qqn0iWtLyIjcQI3Q-125" value="Calidad" style="text;strokeColor=none;fillColor=none;align=left;verticalAlign=middle;spacingLeft=4;spacingRight=4;overflow=hidden;points=[[0,0.5],[1,0.5]];portConstraint=eastwest;rotatable=0;whiteSpace=wrap;html=1;" parent="Ln-0qqn0iWtLyIjcQI3Q-120" vertex="1">
          <mxGeometry y="150" width="140" height="30" as="geometry" />
        </mxCell>
        <mxCell id="Ln-0qqn0iWtLyIjcQI3Q-126" style="edgeStyle=orthogonalEdgeStyle;rounded=0;orthogonalLoop=1;jettySize=auto;html=1;exitX=1;exitY=0.5;exitDx=0;exitDy=0;entryX=0;entryY=0.5;entryDx=0;entryDy=0;" parent="1" source="Ln-0qqn0iWtLyIjcQI3Q-103" target="Ln-0qqn0iWtLyIjcQI3Q-76" edge="1">
          <mxGeometry relative="1" as="geometry" />
        </mxCell>
        <mxCell id="Ln-0qqn0iWtLyIjcQI3Q-127" value="Dispositivo" style="swimlane;fontStyle=0;childLayout=stackLayout;horizontal=1;startSize=30;horizontalStack=0;resizeParent=1;resizeParentMax=0;resizeLast=0;collapsible=1;marginBottom=0;whiteSpace=wrap;html=1;" parent="1" vertex="1">
          <mxGeometry x="307" y="1244" width="140" height="180" as="geometry">
            <mxRectangle x="340" y="270" width="100" height="30" as="alternateBounds" />
          </mxGeometry>
        </mxCell>
        <mxCell id="Ln-0qqn0iWtLyIjcQI3Q-128" value="ID Dispositivo&lt;span style=&quot;white-space: pre;&quot;&gt; &lt;/span&gt;" style="text;strokeColor=none;fillColor=none;align=left;verticalAlign=middle;spacingLeft=4;spacingRight=4;overflow=hidden;points=[[0,0.5],[1,0.5]];portConstraint=eastwest;rotatable=0;whiteSpace=wrap;html=1;fontStyle=1" parent="Ln-0qqn0iWtLyIjcQI3Q-127" vertex="1">
          <mxGeometry y="30" width="140" height="30" as="geometry" />
        </mxCell>
        <mxCell id="Ln-0qqn0iWtLyIjcQI3Q-129" value="Tipo" style="text;strokeColor=none;fillColor=none;align=left;verticalAlign=middle;spacingLeft=4;spacingRight=4;overflow=hidden;points=[[0,0.5],[1,0.5]];portConstraint=eastwest;rotatable=0;whiteSpace=wrap;html=1;" parent="Ln-0qqn0iWtLyIjcQI3Q-127" vertex="1">
          <mxGeometry y="60" width="140" height="30" as="geometry" />
        </mxCell>
        <mxCell id="Ln-0qqn0iWtLyIjcQI3Q-130" value="Inteligente" style="text;strokeColor=none;fillColor=none;align=left;verticalAlign=middle;spacingLeft=4;spacingRight=4;overflow=hidden;points=[[0,0.5],[1,0.5]];portConstraint=eastwest;rotatable=0;whiteSpace=wrap;html=1;" parent="Ln-0qqn0iWtLyIjcQI3Q-127" vertex="1">
          <mxGeometry y="90" width="140" height="30" as="geometry" />
        </mxCell>
        <mxCell id="Ln-0qqn0iWtLyIjcQI3Q-131" value="Casting" style="text;strokeColor=none;fillColor=none;align=left;verticalAlign=middle;spacingLeft=4;spacingRight=4;overflow=hidden;points=[[0,0.5],[1,0.5]];portConstraint=eastwest;rotatable=0;whiteSpace=wrap;html=1;" parent="Ln-0qqn0iWtLyIjcQI3Q-127" vertex="1">
          <mxGeometry y="120" width="140" height="30" as="geometry" />
        </mxCell>
        <mxCell id="Ln-0qqn0iWtLyIjcQI3Q-132" value="Peso dispositivo" style="text;strokeColor=none;fillColor=none;align=left;verticalAlign=middle;spacingLeft=4;spacingRight=4;overflow=hidden;points=[[0,0.5],[1,0.5]];portConstraint=eastwest;rotatable=0;whiteSpace=wrap;html=1;" parent="Ln-0qqn0iWtLyIjcQI3Q-127" vertex="1">
          <mxGeometry y="150" width="140" height="30" as="geometry" />
        </mxCell>
        <mxCell id="Ln-0qqn0iWtLyIjcQI3Q-133" value="Reproducir" style="swimlane;fontStyle=0;childLayout=stackLayout;horizontal=1;startSize=30;horizontalStack=0;resizeParent=1;resizeParentMax=0;resizeLast=0;collapsible=1;marginBottom=0;whiteSpace=wrap;html=1;" parent="1" vertex="1">
          <mxGeometry x="487" y="1244" width="140" height="90" as="geometry">
            <mxRectangle x="340" y="270" width="100" height="30" as="alternateBounds" />
          </mxGeometry>
        </mxCell>
        <mxCell id="Ln-0qqn0iWtLyIjcQI3Q-134" value="&lt;b&gt;Título original&lt;/b&gt;" style="text;strokeColor=none;fillColor=none;align=left;verticalAlign=middle;spacingLeft=4;spacingRight=4;overflow=hidden;points=[[0,0.5],[1,0.5]];portConstraint=eastwest;rotatable=0;whiteSpace=wrap;html=1;" parent="Ln-0qqn0iWtLyIjcQI3Q-133" vertex="1">
          <mxGeometry y="30" width="140" height="30" as="geometry" />
        </mxCell>
        <mxCell id="Ln-0qqn0iWtLyIjcQI3Q-135" value="&lt;span style=&quot;font-weight: normal;&quot;&gt;ID Dispositivo&lt;/span&gt;" style="text;strokeColor=none;fillColor=none;align=left;verticalAlign=middle;spacingLeft=4;spacingRight=4;overflow=hidden;points=[[0,0.5],[1,0.5]];portConstraint=eastwest;rotatable=0;whiteSpace=wrap;html=1;fontStyle=1" parent="Ln-0qqn0iWtLyIjcQI3Q-133" vertex="1">
          <mxGeometry y="60" width="140" height="30" as="geometry" />
        </mxCell>
        <mxCell id="Ln-0qqn0iWtLyIjcQI3Q-136" style="edgeStyle=orthogonalEdgeStyle;rounded=0;orthogonalLoop=1;jettySize=auto;html=1;exitX=1;exitY=0.5;exitDx=0;exitDy=0;" parent="Ln-0qqn0iWtLyIjcQI3Q-133" source="Ln-0qqn0iWtLyIjcQI3Q-134" edge="1">
          <mxGeometry relative="1" as="geometry">
            <mxPoint x="420" y="-170" as="targetPoint" />
          </mxGeometry>
        </mxCell>
        <mxCell id="Ln-0qqn0iWtLyIjcQI3Q-137" style="edgeStyle=orthogonalEdgeStyle;rounded=0;orthogonalLoop=1;jettySize=auto;html=1;exitX=1;exitY=0.5;exitDx=0;exitDy=0;entryX=0;entryY=0.5;entryDx=0;entryDy=0;" parent="1" source="Ln-0qqn0iWtLyIjcQI3Q-91" target="Ln-0qqn0iWtLyIjcQI3Q-113" edge="1">
          <mxGeometry relative="1" as="geometry" />
        </mxCell>
        <mxCell id="Ln-0qqn0iWtLyIjcQI3Q-138" style="edgeStyle=orthogonalEdgeStyle;rounded=0;orthogonalLoop=1;jettySize=auto;html=1;exitX=1;exitY=0.5;exitDx=0;exitDy=0;entryX=0;entryY=0.5;entryDx=0;entryDy=0;" parent="1" source="Ln-0qqn0iWtLyIjcQI3Q-91" target="Ln-0qqn0iWtLyIjcQI3Q-118" edge="1">
          <mxGeometry relative="1" as="geometry" />
        </mxCell>
        <mxCell id="Ln-0qqn0iWtLyIjcQI3Q-139" style="edgeStyle=orthogonalEdgeStyle;rounded=0;orthogonalLoop=1;jettySize=auto;html=1;exitX=1;exitY=0.5;exitDx=0;exitDy=0;entryX=0;entryY=0.5;entryDx=0;entryDy=0;" parent="1" source="Ln-0qqn0iWtLyIjcQI3Q-91" target="Ln-0qqn0iWtLyIjcQI3Q-124" edge="1">
          <mxGeometry relative="1" as="geometry" />
        </mxCell>
        <mxCell id="Ln-0qqn0iWtLyIjcQI3Q-140" style="edgeStyle=orthogonalEdgeStyle;rounded=0;orthogonalLoop=1;jettySize=auto;html=1;exitX=1;exitY=0.5;exitDx=0;exitDy=0;entryX=0;entryY=0.5;entryDx=0;entryDy=0;" parent="1" source="Ln-0qqn0iWtLyIjcQI3Q-118" target="Ln-0qqn0iWtLyIjcQI3Q-98" edge="1">
          <mxGeometry relative="1" as="geometry">
            <Array as="points">
              <mxPoint x="643" y="889" />
              <mxPoint x="643" y="844" />
              <mxPoint x="823" y="844" />
              <mxPoint x="823" y="964" />
            </Array>
          </mxGeometry>
        </mxCell>
        <mxCell id="Ln-0qqn0iWtLyIjcQI3Q-141" style="edgeStyle=orthogonalEdgeStyle;rounded=0;orthogonalLoop=1;jettySize=auto;html=1;exitX=1;exitY=0.5;exitDx=0;exitDy=0;entryX=0;entryY=0.5;entryDx=0;entryDy=0;" parent="1" source="Ln-0qqn0iWtLyIjcQI3Q-113" target="Ln-0qqn0iWtLyIjcQI3Q-98" edge="1">
          <mxGeometry relative="1" as="geometry">
            <Array as="points">
              <mxPoint x="823" y="1089" />
              <mxPoint x="823" y="964" />
            </Array>
          </mxGeometry>
        </mxCell>
        <mxCell id="Ln-0qqn0iWtLyIjcQI3Q-142" style="edgeStyle=orthogonalEdgeStyle;rounded=0;orthogonalLoop=1;jettySize=auto;html=1;exitX=1;exitY=0.5;exitDx=0;exitDy=0;entryX=0;entryY=0.5;entryDx=0;entryDy=0;" parent="1" source="Ln-0qqn0iWtLyIjcQI3Q-123" target="Ln-0qqn0iWtLyIjcQI3Q-98" edge="1">
          <mxGeometry relative="1" as="geometry" />
        </mxCell>
        <mxCell id="Ln-0qqn0iWtLyIjcQI3Q-143" value="" style="endArrow=classic;html=1;rounded=0;" parent="1" edge="1">
          <mxGeometry width="50" height="50" relative="1" as="geometry">
            <mxPoint x="383" y="1195" as="sourcePoint" />
            <mxPoint x="383" y="1245" as="targetPoint" />
          </mxGeometry>
        </mxCell>
        <mxCell id="Ln-0qqn0iWtLyIjcQI3Q-144" value="" style="endArrow=classic;html=1;rounded=0;" parent="1" edge="1">
          <mxGeometry width="50" height="50" relative="1" as="geometry">
            <mxPoint x="376.5" y="1070" as="sourcePoint" />
            <mxPoint x="376" y="1105" as="targetPoint" />
          </mxGeometry>
        </mxCell>
        <mxCell id="Ln-0qqn0iWtLyIjcQI3Q-145" style="edgeStyle=orthogonalEdgeStyle;rounded=0;orthogonalLoop=1;jettySize=auto;html=1;exitX=1;exitY=0.5;exitDx=0;exitDy=0;entryX=0;entryY=0.5;entryDx=0;entryDy=0;" parent="1" source="Ln-0qqn0iWtLyIjcQI3Q-128" target="Ln-0qqn0iWtLyIjcQI3Q-135" edge="1">
          <mxGeometry relative="1" as="geometry" />
        </mxCell>
        <mxCell id="Ln-0qqn0iWtLyIjcQI3Q-146" value="" style="endArrow=classic;html=1;rounded=0;" parent="1" edge="1">
          <mxGeometry width="50" height="50" relative="1" as="geometry">
            <mxPoint x="376.5" y="764" as="sourcePoint" />
            <mxPoint x="376" y="804" as="targetPoint" />
          </mxGeometry>
        </mxCell>
        <mxCell id="Ln-0qqn0iWtLyIjcQI3Q-147" value="" style="endArrow=classic;html=1;rounded=0;entryX=0.5;entryY=0;entryDx=0;entryDy=0;" parent="1" target="Ln-0qqn0iWtLyIjcQI3Q-89" edge="1">
          <mxGeometry width="50" height="50" relative="1" as="geometry">
            <mxPoint x="377" y="894" as="sourcePoint" />
            <mxPoint x="376.5" y="934" as="targetPoint" />
          </mxGeometry>
        </mxCell>
        <mxCell id="Ln-0qqn0iWtLyIjcQI3Q-148" style="edgeStyle=orthogonalEdgeStyle;rounded=0;orthogonalLoop=1;jettySize=auto;html=1;exitX=1;exitY=0.5;exitDx=0;exitDy=0;entryX=0;entryY=0.5;entryDx=0;entryDy=0;" parent="1" source="Ln-0qqn0iWtLyIjcQI3Q-82" target="Ln-0qqn0iWtLyIjcQI3Q-103" edge="1">
          <mxGeometry relative="1" as="geometry" />
        </mxCell>
        <mxCell id="Ln-0qqn0iWtLyIjcQI3Q-149" value="&lt;b&gt;Suscripción&lt;/b&gt;" style="rounded=0;whiteSpace=wrap;html=1;fillColor=#f5f5f5;strokeColor=#666666;fontColor=#333333;shadow=1;" parent="1" vertex="1">
          <mxGeometry x="-1051" y="562" width="120" height="31" as="geometry" />
        </mxCell>
        <mxCell id="Ln-0qqn0iWtLyIjcQI3Q-150" value="&lt;b&gt;Usuario&lt;/b&gt;" style="rounded=0;whiteSpace=wrap;html=1;fillColor=#f5f5f5;strokeColor=#666666;fontColor=#333333;shadow=1;" parent="1" vertex="1">
          <mxGeometry x="-1475" y="1001.5" width="120" height="31" as="geometry" />
        </mxCell>
        <mxCell id="Ln-0qqn0iWtLyIjcQI3Q-151" value="&lt;b&gt;Contenido&lt;/b&gt;" style="rounded=0;whiteSpace=wrap;html=1;fillColor=#f5f5f5;strokeColor=#666666;fontColor=#333333;shadow=1;" parent="1" vertex="1">
          <mxGeometry x="-904" y="1003" width="120" height="31" as="geometry" />
        </mxCell>
        <mxCell id="Ln-0qqn0iWtLyIjcQI3Q-152" value="&lt;b&gt;Dispositivo&lt;/b&gt;" style="rounded=0;whiteSpace=wrap;html=1;fillColor=#f5f5f5;strokeColor=#666666;fontColor=#333333;" parent="1" vertex="1">
          <mxGeometry x="-1290" y="1257" width="120" height="31" as="geometry" />
        </mxCell>
        <mxCell id="Ln-0qqn0iWtLyIjcQI3Q-153" value="&lt;u&gt;ID Cuenta&lt;/u&gt;" style="ellipse;whiteSpace=wrap;html=1;fillColor=#e1d5e7;strokeColor=#9673a6;gradientColor=none;" parent="1" vertex="1">
          <mxGeometry x="-1653" y="498" width="120" height="26" as="geometry" />
        </mxCell>
        <mxCell id="Ln-0qqn0iWtLyIjcQI3Q-155" value="Situación de cuenta" style="ellipse;whiteSpace=wrap;html=1;fillColor=#e1d5e7;strokeColor=#9673a6;gradientColor=none;" parent="1" vertex="1">
          <mxGeometry x="-1653" y="578.5" width="120" height="26" as="geometry" />
        </mxCell>
        <mxCell id="Ln-0qqn0iWtLyIjcQI3Q-156" value="Fecha registro" style="ellipse;whiteSpace=wrap;html=1;fillColor=#e1d5e7;strokeColor=#9673a6;gradientColor=none;" parent="1" vertex="1">
          <mxGeometry x="-1653" y="617" width="120" height="26" as="geometry" />
        </mxCell>
        <mxCell id="Ln-0qqn0iWtLyIjcQI3Q-157" value="Método de pago" style="ellipse;whiteSpace=wrap;html=1;fillColor=#e1d5e7;strokeColor=#9673a6;gradientColor=none;" parent="1" vertex="1">
          <mxGeometry x="-1653" y="660" width="120" height="26" as="geometry" />
        </mxCell>
        <mxCell id="Ln-0qqn0iWtLyIjcQI3Q-158" value="&lt;u&gt;ID Usuario&lt;/u&gt;" style="ellipse;whiteSpace=wrap;html=1;fillColor=#e1d5e7;strokeColor=#9673a6;gradientColor=none;" parent="1" vertex="1">
          <mxGeometry x="-1716" y="938" width="120" height="26" as="geometry" />
        </mxCell>
        <mxCell id="Ln-0qqn0iWtLyIjcQI3Q-159" value="Contraseña" style="ellipse;whiteSpace=wrap;html=1;fillColor=#e1d5e7;strokeColor=#9673a6;gradientColor=none;" parent="1" vertex="1">
          <mxGeometry x="-1653" y="706" width="120" height="26" as="geometry" />
        </mxCell>
        <mxCell id="Ln-0qqn0iWtLyIjcQI3Q-160" value="Correo Electrónico" style="ellipse;whiteSpace=wrap;html=1;fillColor=#e1d5e7;strokeColor=#9673a6;gradientColor=none;" parent="1" vertex="1">
          <mxGeometry x="-1653" y="447" width="120" height="26" as="geometry" />
        </mxCell>
        <mxCell id="Ln-0qqn0iWtLyIjcQI3Q-161" value="Nombre" style="ellipse;whiteSpace=wrap;html=1;fillColor=#e1d5e7;strokeColor=#9673a6;gradientColor=none;" parent="1" vertex="1">
          <mxGeometry x="-1714" y="1009" width="120" height="26" as="geometry" />
        </mxCell>
        <mxCell id="Ln-0qqn0iWtLyIjcQI3Q-162" value="Menor de edad" style="ellipse;whiteSpace=wrap;html=1;fillColor=#e1d5e7;strokeColor=#9673a6;gradientColor=none;" parent="1" vertex="1">
          <mxGeometry x="-1719" y="1043" width="124.5" height="26" as="geometry" />
        </mxCell>
        <mxCell id="Ln-0qqn0iWtLyIjcQI3Q-163" value="&lt;u&gt;ID Dispositivo&lt;/u&gt;" style="ellipse;whiteSpace=wrap;html=1;fillColor=#e1d5e7;strokeColor=#9673a6;gradientColor=none;" parent="1" vertex="1">
          <mxGeometry x="-1420" y="1293" width="120" height="26" as="geometry" />
        </mxCell>
        <mxCell id="Ln-0qqn0iWtLyIjcQI3Q-164" value="Tipo" style="ellipse;whiteSpace=wrap;html=1;fillColor=#e1d5e7;strokeColor=#9673a6;gradientColor=none;" parent="1" vertex="1">
          <mxGeometry x="-1394" y="1335" width="120" height="26" as="geometry" />
        </mxCell>
        <mxCell id="Ln-0qqn0iWtLyIjcQI3Q-165" value="Inteligente" style="ellipse;whiteSpace=wrap;html=1;fillColor=#e1d5e7;strokeColor=#9673a6;gradientColor=none;" parent="1" vertex="1">
          <mxGeometry x="-1298" y="1361" width="136" height="26" as="geometry" />
        </mxCell>
        <mxCell id="Ln-0qqn0iWtLyIjcQI3Q-166" value="Descargas" style="ellipse;whiteSpace=wrap;html=1;fillColor=#e1d5e7;strokeColor=#9673a6;gradientColor=none;" parent="1" vertex="1">
          <mxGeometry x="-1237" y="1164.5" width="77" height="26" as="geometry" />
        </mxCell>
        <mxCell id="Ln-0qqn0iWtLyIjcQI3Q-167" value="&lt;u&gt;Titulo original&lt;/u&gt;" style="ellipse;whiteSpace=wrap;html=1;fillColor=#e1d5e7;strokeColor=#9673a6;gradientColor=none;" parent="1" vertex="1">
          <mxGeometry x="-792" y="905" width="86" height="26" as="geometry" />
        </mxCell>
        <mxCell id="Ln-0qqn0iWtLyIjcQI3Q-168" value="Genero/Tema&amp;nbsp;" style="ellipse;whiteSpace=wrap;html=1;fillColor=#e1d5e7;strokeColor=#9673a6;gradientColor=none;" parent="1" vertex="1">
          <mxGeometry x="-996" y="932" width="91" height="26" as="geometry" />
        </mxCell>
        <mxCell id="Ln-0qqn0iWtLyIjcQI3Q-169" value="Productor&amp;nbsp;" style="ellipse;whiteSpace=wrap;html=1;fillColor=#e1d5e7;strokeColor=#9673a6;gradientColor=none;" parent="1" vertex="1">
          <mxGeometry x="-824" y="877.5" width="75" height="24" as="geometry" />
        </mxCell>
        <mxCell id="Ln-0qqn0iWtLyIjcQI3Q-170" value="Reparto" style="ellipse;whiteSpace=wrap;html=1;fillColor=#e1d5e7;strokeColor=#9673a6;gradientColor=none;" parent="1" vertex="1">
          <mxGeometry x="-784" y="934.5" width="68" height="26" as="geometry" />
        </mxCell>
        <mxCell id="Ln-0qqn0iWtLyIjcQI3Q-171" value="Director" style="ellipse;whiteSpace=wrap;html=1;fillColor=#e1d5e7;strokeColor=#9673a6;gradientColor=none;" parent="1" vertex="1">
          <mxGeometry x="-968" y="906" width="65" height="24" as="geometry" />
        </mxCell>
        <mxCell id="Ln-0qqn0iWtLyIjcQI3Q-172" value="Calificación" style="ellipse;whiteSpace=wrap;html=1;fillColor=#e1d5e7;strokeColor=#9673a6;gradientColor=none;" parent="1" vertex="1">
          <mxGeometry x="-945" y="875.5" width="73" height="26" as="geometry" />
        </mxCell>
        <mxCell id="Ln-0qqn0iWtLyIjcQI3Q-176" value="Fecha pago" style="ellipse;whiteSpace=wrap;html=1;fillColor=#e1d5e7;strokeColor=#9673a6;gradientColor=none;" parent="1" vertex="1">
          <mxGeometry x="-1136" y="450" width="120" height="26" as="geometry" />
        </mxCell>
        <mxCell id="Ln-0qqn0iWtLyIjcQI3Q-177" value="&lt;u&gt;ID Suscripción&lt;/u&gt;" style="ellipse;whiteSpace=wrap;html=1;fillColor=#e1d5e7;strokeColor=#9673a6;gradientColor=none;" parent="1" vertex="1">
          <mxGeometry x="-1194" y="493" width="120" height="26" as="geometry" />
        </mxCell>
        <mxCell id="Ln-0qqn0iWtLyIjcQI3Q-178" value="Vencimiento/Plazo" style="ellipse;whiteSpace=wrap;html=1;fillColor=#e1d5e7;strokeColor=#9673a6;gradientColor=none;" parent="1" vertex="1">
          <mxGeometry x="-1045" y="413" width="120" height="26" as="geometry" />
        </mxCell>
        <mxCell id="Ln-0qqn0iWtLyIjcQI3Q-179" value="Costo mensual" style="ellipse;whiteSpace=wrap;html=1;fillColor=#e1d5e7;strokeColor=#9673a6;gradientColor=none;" parent="1" vertex="1">
          <mxGeometry x="-953" y="455" width="120" height="26" as="geometry" />
        </mxCell>
        <mxCell id="Ln-0qqn0iWtLyIjcQI3Q-180" value="Descuento" style="ellipse;whiteSpace=wrap;html=1;fillColor=#e1d5e7;strokeColor=#9673a6;gradientColor=none;" parent="1" vertex="1">
          <mxGeometry x="-908" y="503" width="120" height="26" as="geometry" />
        </mxCell>
        <mxCell id="Ln-0qqn0iWtLyIjcQI3Q-181" value="&lt;b&gt;Cuenta&lt;/b&gt;" style="rounded=0;whiteSpace=wrap;html=1;fillColor=#f5f5f5;strokeColor=#666666;fontColor=#333333;shadow=1;" parent="1" vertex="1">
          <mxGeometry x="-1472" y="562" width="120" height="31" as="geometry" />
        </mxCell>
        <mxCell id="Ln-0qqn0iWtLyIjcQI3Q-182" value="Permite" style="rhombus;whiteSpace=wrap;html=1;fillColor=#d5e8d4;strokeColor=#82b366;" parent="1" vertex="1">
          <mxGeometry x="-1455" y="829" width="80" height="63" as="geometry" />
        </mxCell>
        <mxCell id="Ln-0qqn0iWtLyIjcQI3Q-183" value="" style="endArrow=none;html=1;rounded=0;entryX=0.5;entryY=1;entryDx=0;entryDy=0;exitX=0.5;exitY=0;exitDx=0;exitDy=0;" parent="1" source="Ln-0qqn0iWtLyIjcQI3Q-182" target="Ln-0qqn0iWtLyIjcQI3Q-181" edge="1">
          <mxGeometry width="50" height="50" relative="1" as="geometry">
            <mxPoint x="-1412" y="706" as="sourcePoint" />
            <mxPoint x="-1382" y="654" as="targetPoint" />
          </mxGeometry>
        </mxCell>
        <mxCell id="Ln-0qqn0iWtLyIjcQI3Q-184" value="" style="endArrow=none;html=1;rounded=0;entryX=0.5;entryY=1;entryDx=0;entryDy=0;exitX=0.5;exitY=0;exitDx=0;exitDy=0;" parent="1" source="Ln-0qqn0iWtLyIjcQI3Q-150" edge="1">
          <mxGeometry width="50" height="50" relative="1" as="geometry">
            <mxPoint x="-1415.67" y="1005" as="sourcePoint" />
            <mxPoint x="-1415.67" y="892" as="targetPoint" />
          </mxGeometry>
        </mxCell>
        <mxCell id="Ln-0qqn0iWtLyIjcQI3Q-185" value="1" style="text;html=1;strokeColor=none;fillColor=none;align=center;verticalAlign=middle;whiteSpace=wrap;rounded=0;" parent="1" vertex="1">
          <mxGeometry x="-1415" y="594" width="24" height="19" as="geometry" />
        </mxCell>
        <mxCell id="Ln-0qqn0iWtLyIjcQI3Q-186" value="3" style="text;html=1;strokeColor=none;fillColor=none;align=center;verticalAlign=middle;whiteSpace=wrap;rounded=0;" parent="1" vertex="1">
          <mxGeometry x="-1418" y="985" width="24" height="19" as="geometry" />
        </mxCell>
        <mxCell id="Ln-0qqn0iWtLyIjcQI3Q-187" value="" style="endArrow=none;html=1;rounded=0;entryX=1;entryY=0.5;entryDx=0;entryDy=0;exitX=0;exitY=0.5;exitDx=0;exitDy=0;" parent="1" source="Ln-0qqn0iWtLyIjcQI3Q-189" target="Ln-0qqn0iWtLyIjcQI3Q-181" edge="1">
          <mxGeometry width="50" height="50" relative="1" as="geometry">
            <mxPoint x="-1251" y="701" as="sourcePoint" />
            <mxPoint x="-1405" y="726" as="targetPoint" />
          </mxGeometry>
        </mxCell>
        <mxCell id="Ln-0qqn0iWtLyIjcQI3Q-188" value="1" style="text;html=1;strokeColor=none;fillColor=none;align=center;verticalAlign=middle;whiteSpace=wrap;rounded=0;" parent="1" vertex="1">
          <mxGeometry x="-1352" y="559.5" width="24" height="19" as="geometry" />
        </mxCell>
        <mxCell id="Ln-0qqn0iWtLyIjcQI3Q-189" value="Abona" style="rhombus;whiteSpace=wrap;html=1;fillColor=#d5e8d4;strokeColor=#82b366;" parent="1" vertex="1">
          <mxGeometry x="-1236" y="546" width="80" height="63" as="geometry" />
        </mxCell>
        <mxCell id="Ln-0qqn0iWtLyIjcQI3Q-190" value="" style="endArrow=none;html=1;rounded=0;entryX=1;entryY=0.5;entryDx=0;entryDy=0;exitX=0;exitY=1;exitDx=0;exitDy=0;" parent="1" edge="1">
          <mxGeometry width="50" height="50" relative="1" as="geometry">
            <mxPoint x="-1052" y="577.17" as="sourcePoint" />
            <mxPoint x="-1156" y="577.17" as="targetPoint" />
          </mxGeometry>
        </mxCell>
        <mxCell id="Ln-0qqn0iWtLyIjcQI3Q-191" value="Reproducir" style="rhombus;whiteSpace=wrap;html=1;fillColor=#d5e8d4;strokeColor=#82b366;" parent="1" vertex="1">
          <mxGeometry x="-882" y="1123" width="80" height="63" as="geometry" />
        </mxCell>
        <mxCell id="Ln-0qqn0iWtLyIjcQI3Q-192" value="N" style="text;html=1;strokeColor=none;fillColor=none;align=center;verticalAlign=middle;whiteSpace=wrap;rounded=0;" parent="1" vertex="1">
          <mxGeometry x="-1082" y="559" width="32" height="19" as="geometry" />
        </mxCell>
        <mxCell id="Ln-0qqn0iWtLyIjcQI3Q-193" value="Descargar" style="rhombus;whiteSpace=wrap;html=1;fillColor=#d5e8d4;strokeColor=#82b366;" parent="1" vertex="1">
          <mxGeometry x="-1190" y="1085" width="80" height="63" as="geometry" />
        </mxCell>
        <mxCell id="Ln-0qqn0iWtLyIjcQI3Q-194" value="Asocia" style="rhombus;whiteSpace=wrap;html=1;fillColor=#d5e8d4;strokeColor=#82b366;" parent="1" vertex="1">
          <mxGeometry x="-1455" y="1131" width="80" height="63" as="geometry" />
        </mxCell>
        <mxCell id="Ln-0qqn0iWtLyIjcQI3Q-195" value="" style="endArrow=none;html=1;rounded=0;exitX=0.5;exitY=0;exitDx=0;exitDy=0;entryX=0.5;entryY=1;entryDx=0;entryDy=0;" parent="1" source="Ln-0qqn0iWtLyIjcQI3Q-194" target="Ln-0qqn0iWtLyIjcQI3Q-150" edge="1">
          <mxGeometry width="50" height="50" relative="1" as="geometry">
            <mxPoint x="-1412" y="1104" as="sourcePoint" />
            <mxPoint x="-1413" y="1027" as="targetPoint" />
          </mxGeometry>
        </mxCell>
        <mxCell id="Ln-0qqn0iWtLyIjcQI3Q-196" value="" style="endArrow=none;html=1;rounded=0;exitX=0.5;exitY=1;exitDx=0;exitDy=0;" parent="1" source="Ln-0qqn0iWtLyIjcQI3Q-194" edge="1">
          <mxGeometry width="50" height="50" relative="1" as="geometry">
            <mxPoint x="-1416" y="1239" as="sourcePoint" />
            <mxPoint x="-1290" y="1271" as="targetPoint" />
            <Array as="points">
              <mxPoint x="-1416" y="1271" />
            </Array>
          </mxGeometry>
        </mxCell>
        <mxCell id="Ln-0qqn0iWtLyIjcQI3Q-197" value="" style="endArrow=none;html=1;rounded=0;exitX=0.5;exitY=0;exitDx=0;exitDy=0;entryX=0.5;entryY=1;entryDx=0;entryDy=0;" parent="1" source="Ln-0qqn0iWtLyIjcQI3Q-191" target="Ln-0qqn0iWtLyIjcQI3Q-151" edge="1">
          <mxGeometry width="50" height="50" relative="1" as="geometry">
            <mxPoint x="-892" y="1110.5" as="sourcePoint" />
            <mxPoint x="-891.6700000000001" y="1043.5" as="targetPoint" />
          </mxGeometry>
        </mxCell>
        <mxCell id="Ln-0qqn0iWtLyIjcQI3Q-198" value="" style="endArrow=none;html=1;rounded=0;exitX=1;exitY=0.5;exitDx=0;exitDy=0;" parent="1" source="Ln-0qqn0iWtLyIjcQI3Q-152" target="Ln-0qqn0iWtLyIjcQI3Q-191" edge="1">
          <mxGeometry width="50" height="50" relative="1" as="geometry">
            <mxPoint x="-1061.67" y="1307" as="sourcePoint" />
            <mxPoint x="-996" y="1239" as="targetPoint" />
            <Array as="points">
              <mxPoint x="-842" y="1275" />
            </Array>
          </mxGeometry>
        </mxCell>
        <mxCell id="Ln-0qqn0iWtLyIjcQI3Q-199" value="" style="endArrow=none;html=1;rounded=0;entryX=0;entryY=0.5;entryDx=0;entryDy=0;exitX=0.25;exitY=0;exitDx=0;exitDy=0;" parent="1" source="Ln-0qqn0iWtLyIjcQI3Q-227" target="Ln-0qqn0iWtLyIjcQI3Q-193" edge="1">
          <mxGeometry width="50" height="50" relative="1" as="geometry">
            <mxPoint x="-1385" y="1116" as="sourcePoint" />
            <mxPoint x="-1276.67" y="1030" as="targetPoint" />
            <Array as="points">
              <mxPoint x="-1380" y="1117" />
            </Array>
          </mxGeometry>
        </mxCell>
        <mxCell id="Ln-0qqn0iWtLyIjcQI3Q-201" value="1" style="text;html=1;strokeColor=none;fillColor=none;align=center;verticalAlign=middle;whiteSpace=wrap;rounded=0;" parent="1" vertex="1">
          <mxGeometry x="-1418" y="1033" width="24" height="19" as="geometry" />
        </mxCell>
        <mxCell id="Ln-0qqn0iWtLyIjcQI3Q-202" value="5" style="text;html=1;strokeColor=none;fillColor=none;align=center;verticalAlign=middle;whiteSpace=wrap;rounded=0;" parent="1" vertex="1">
          <mxGeometry x="-1311" y="1253" width="24" height="19" as="geometry" />
        </mxCell>
        <mxCell id="Ln-0qqn0iWtLyIjcQI3Q-205" value="Lista Favoritos" style="rhombus;whiteSpace=wrap;html=1;fillColor=#d5e8d4;strokeColor=#82b366;" parent="1" vertex="1">
          <mxGeometry x="-1201" y="983" width="98" height="77" as="geometry" />
        </mxCell>
        <mxCell id="Ln-0qqn0iWtLyIjcQI3Q-207" value="" style="endArrow=none;html=1;rounded=0;exitX=0.5;exitY=1;exitDx=0;exitDy=0;entryX=0.5;entryY=0;entryDx=0;entryDy=0;" parent="1" source="Ln-0qqn0iWtLyIjcQI3Q-193" target="Ln-0qqn0iWtLyIjcQI3Q-166" edge="1">
          <mxGeometry width="50" height="50" relative="1" as="geometry">
            <mxPoint x="-1183" y="1070.5" as="sourcePoint" />
            <mxPoint x="-1109" y="1151.5" as="targetPoint" />
          </mxGeometry>
        </mxCell>
        <mxCell id="Ln-0qqn0iWtLyIjcQI3Q-208" value="Historial Reproducción" style="rhombus;whiteSpace=wrap;html=1;fillColor=#d5e8d4;strokeColor=#82b366;" parent="1" vertex="1">
          <mxGeometry x="-1201" y="883.5" width="98" height="77" as="geometry" />
        </mxCell>
        <mxCell id="Ln-0qqn0iWtLyIjcQI3Q-209" value="" style="endArrow=none;html=1;rounded=0;exitX=1;exitY=0.5;exitDx=0;exitDy=0;entryX=0.25;entryY=0;entryDx=0;entryDy=0;" parent="1" source="Ln-0qqn0iWtLyIjcQI3Q-208" target="Ln-0qqn0iWtLyIjcQI3Q-151" edge="1">
          <mxGeometry width="50" height="50" relative="1" as="geometry">
            <mxPoint x="-1036" y="961" as="sourcePoint" />
            <mxPoint x="-978" y="869" as="targetPoint" />
            <Array as="points" />
          </mxGeometry>
        </mxCell>
        <mxCell id="Ln-0qqn0iWtLyIjcQI3Q-210" value="" style="endArrow=none;html=1;rounded=0;exitX=0.75;exitY=0;exitDx=0;exitDy=0;entryX=0;entryY=0.5;entryDx=0;entryDy=0;" parent="1" source="Ln-0qqn0iWtLyIjcQI3Q-150" target="Ln-0qqn0iWtLyIjcQI3Q-208" edge="1">
          <mxGeometry width="50" height="50" relative="1" as="geometry">
            <mxPoint x="-1381" y="945" as="sourcePoint" />
            <mxPoint x="-1331" y="895" as="targetPoint" />
            <Array as="points">
              <mxPoint x="-1385" y="922" />
            </Array>
          </mxGeometry>
        </mxCell>
        <mxCell id="Ln-0qqn0iWtLyIjcQI3Q-213" value="Cont_Docu" style="rhombus;whiteSpace=wrap;html=1;fillColor=#d5e8d4;strokeColor=#82b366;" parent="1" vertex="1">
          <mxGeometry x="-604" y="1085" width="68" height="63" as="geometry" />
        </mxCell>
        <mxCell id="Ln-0qqn0iWtLyIjcQI3Q-214" value="" style="endArrow=none;html=1;rounded=0;exitX=1;exitY=0.5;exitDx=0;exitDy=0;entryX=0;entryY=0.5;entryDx=0;entryDy=0;" parent="1" source="Ln-0qqn0iWtLyIjcQI3Q-151" edge="1" target="xnl_JkB2PjL908ZeRTix-10">
          <mxGeometry width="50" height="50" relative="1" as="geometry">
            <mxPoint x="-875" y="1078" as="sourcePoint" />
            <mxPoint x="-615" y="953" as="targetPoint" />
          </mxGeometry>
        </mxCell>
        <mxCell id="Ln-0qqn0iWtLyIjcQI3Q-215" value="" style="endArrow=none;html=1;rounded=0;exitX=1;exitY=0.5;exitDx=0;exitDy=0;entryX=0;entryY=0.5;entryDx=0;entryDy=0;" parent="1" source="Ln-0qqn0iWtLyIjcQI3Q-151" target="xnl_JkB2PjL908ZeRTix-14" edge="1">
          <mxGeometry width="50" height="50" relative="1" as="geometry">
            <mxPoint x="-875" y="1078" as="sourcePoint" />
            <mxPoint x="-603" y="1021.5" as="targetPoint" />
          </mxGeometry>
        </mxCell>
        <mxCell id="Ln-0qqn0iWtLyIjcQI3Q-216" value="" style="endArrow=none;html=1;rounded=0;exitX=1;exitY=0.5;exitDx=0;exitDy=0;entryX=0;entryY=0.5;entryDx=0;entryDy=0;" parent="1" source="Ln-0qqn0iWtLyIjcQI3Q-151" target="Ln-0qqn0iWtLyIjcQI3Q-213" edge="1">
          <mxGeometry width="50" height="50" relative="1" as="geometry">
            <mxPoint x="-875" y="1078" as="sourcePoint" />
            <mxPoint x="-825" y="1028" as="targetPoint" />
          </mxGeometry>
        </mxCell>
        <mxCell id="Ln-0qqn0iWtLyIjcQI3Q-217" value="" style="endArrow=none;html=1;rounded=0;exitX=1;exitY=0.5;exitDx=0;exitDy=0;entryX=0;entryY=0.5;entryDx=0;entryDy=0;" parent="1" source="Ln-0qqn0iWtLyIjcQI3Q-213" edge="1">
          <mxGeometry width="50" height="50" relative="1" as="geometry">
            <mxPoint x="-521" y="1087" as="sourcePoint" />
            <mxPoint x="-512" y="1117.5" as="targetPoint" />
          </mxGeometry>
        </mxCell>
        <mxCell id="Ln-0qqn0iWtLyIjcQI3Q-218" value="" style="endArrow=none;html=1;rounded=0;exitX=1;exitY=0.5;exitDx=0;exitDy=0;entryX=0;entryY=0.5;entryDx=0;entryDy=0;" parent="1" edge="1">
          <mxGeometry width="50" height="50" relative="1" as="geometry">
            <mxPoint x="-534" y="1033.5" as="sourcePoint" />
            <mxPoint x="-510" y="1034" as="targetPoint" />
          </mxGeometry>
        </mxCell>
        <mxCell id="Ln-0qqn0iWtLyIjcQI3Q-219" value="" style="endArrow=none;html=1;rounded=0;exitX=1;exitY=0.5;exitDx=0;exitDy=0;" parent="1" edge="1">
          <mxGeometry width="50" height="50" relative="1" as="geometry">
            <mxPoint x="-535" y="894.92" as="sourcePoint" />
            <mxPoint x="-506" y="894.92" as="targetPoint" />
          </mxGeometry>
        </mxCell>
        <mxCell id="Ln-0qqn0iWtLyIjcQI3Q-221" value="N" style="text;html=1;strokeColor=none;fillColor=none;align=center;verticalAlign=middle;whiteSpace=wrap;rounded=0;" parent="1" vertex="1">
          <mxGeometry x="-1388" y="984" width="24" height="19" as="geometry" />
        </mxCell>
        <mxCell id="Ln-0qqn0iWtLyIjcQI3Q-222" value="10" style="text;html=1;strokeColor=none;fillColor=none;align=center;verticalAlign=middle;whiteSpace=wrap;rounded=0;" parent="1" vertex="1">
          <mxGeometry x="-946" y="1001.5" width="28" height="21.5" as="geometry" />
        </mxCell>
        <mxCell id="Ln-0qqn0iWtLyIjcQI3Q-223" value="1" style="text;html=1;strokeColor=none;fillColor=none;align=center;verticalAlign=middle;whiteSpace=wrap;rounded=0;" parent="1" vertex="1">
          <mxGeometry x="-1359" y="999" width="24" height="19" as="geometry" />
        </mxCell>
        <mxCell id="Ln-0qqn0iWtLyIjcQI3Q-224" value="M" style="text;html=1;strokeColor=none;fillColor=none;align=center;verticalAlign=middle;whiteSpace=wrap;rounded=0;" parent="1" vertex="1">
          <mxGeometry x="-925" y="987.5" width="24" height="19" as="geometry" />
        </mxCell>
        <mxCell id="Ln-0qqn0iWtLyIjcQI3Q-225" value="" style="endArrow=none;html=1;rounded=0;exitX=1;exitY=0.5;exitDx=0;exitDy=0;entryX=0;entryY=0.5;entryDx=0;entryDy=0;" parent="1" source="Ln-0qqn0iWtLyIjcQI3Q-205" target="Ln-0qqn0iWtLyIjcQI3Q-151" edge="1">
          <mxGeometry width="50" height="50" relative="1" as="geometry">
            <mxPoint x="-1083" y="1061" as="sourcePoint" />
            <mxPoint x="-1033" y="1011" as="targetPoint" />
          </mxGeometry>
        </mxCell>
        <mxCell id="Ln-0qqn0iWtLyIjcQI3Q-226" value="" style="endArrow=none;html=1;rounded=0;exitX=0;exitY=0.5;exitDx=0;exitDy=0;entryX=0.25;entryY=1;entryDx=0;entryDy=0;" parent="1" source="Ln-0qqn0iWtLyIjcQI3Q-205" target="Ln-0qqn0iWtLyIjcQI3Q-223" edge="1">
          <mxGeometry width="50" height="50" relative="1" as="geometry">
            <mxPoint x="-1083" y="1061" as="sourcePoint" />
            <mxPoint x="-1261" y="1021" as="targetPoint" />
          </mxGeometry>
        </mxCell>
        <mxCell id="Ln-0qqn0iWtLyIjcQI3Q-227" value="1" style="text;html=1;strokeColor=none;fillColor=none;align=center;verticalAlign=middle;whiteSpace=wrap;rounded=0;" parent="1" vertex="1">
          <mxGeometry x="-1386" y="1032" width="24" height="19" as="geometry" />
        </mxCell>
        <mxCell id="Ln-0qqn0iWtLyIjcQI3Q-228" value="N" style="text;html=1;strokeColor=none;fillColor=none;align=center;verticalAlign=middle;whiteSpace=wrap;rounded=0;" parent="1" vertex="1">
          <mxGeometry x="-884" y="1031.5" width="24" height="19" as="geometry" />
        </mxCell>
        <mxCell id="Ln-0qqn0iWtLyIjcQI3Q-229" value="M" style="text;html=1;strokeColor=none;fillColor=none;align=center;verticalAlign=middle;whiteSpace=wrap;rounded=0;" parent="1" vertex="1">
          <mxGeometry x="-1170" y="1252" width="24" height="19" as="geometry" />
        </mxCell>
        <mxCell id="Ln-0qqn0iWtLyIjcQI3Q-230" value="N" style="text;html=1;strokeColor=none;fillColor=none;align=center;verticalAlign=middle;whiteSpace=wrap;rounded=0;" parent="1" vertex="1">
          <mxGeometry x="-848" y="1032" width="24" height="19" as="geometry" />
        </mxCell>
        <mxCell id="Ln-0qqn0iWtLyIjcQI3Q-231" value="" style="endArrow=none;html=1;rounded=0;exitX=1;exitY=0.5;exitDx=0;exitDy=0;entryX=0.25;entryY=1;entryDx=0;entryDy=0;" parent="1" source="Ln-0qqn0iWtLyIjcQI3Q-193" target="Ln-0qqn0iWtLyIjcQI3Q-151" edge="1">
          <mxGeometry width="50" height="50" relative="1" as="geometry">
            <mxPoint x="-936" y="961" as="sourcePoint" />
            <mxPoint x="-886" y="911" as="targetPoint" />
            <Array as="points" />
          </mxGeometry>
        </mxCell>
        <mxCell id="Ln-0qqn0iWtLyIjcQI3Q-232" value="" style="endArrow=none;html=1;rounded=0;exitX=0.5;exitY=1;exitDx=0;exitDy=0;entryX=0.5;entryY=0;entryDx=0;entryDy=0;" parent="1" source="Ln-0qqn0iWtLyIjcQI3Q-170" target="Ln-0qqn0iWtLyIjcQI3Q-151" edge="1">
          <mxGeometry width="50" height="50" relative="1" as="geometry">
            <mxPoint x="-873" y="958.5" as="sourcePoint" />
            <mxPoint x="-823" y="908.5" as="targetPoint" />
          </mxGeometry>
        </mxCell>
        <mxCell id="Ln-0qqn0iWtLyIjcQI3Q-233" value="" style="endArrow=none;html=1;rounded=0;entryX=0.5;entryY=1;entryDx=0;entryDy=0;exitX=0.5;exitY=0;exitDx=0;exitDy=0;" parent="1" source="Ln-0qqn0iWtLyIjcQI3Q-151" target="Ln-0qqn0iWtLyIjcQI3Q-172" edge="1">
          <mxGeometry width="50" height="50" relative="1" as="geometry">
            <mxPoint x="-873" y="958.5" as="sourcePoint" />
            <mxPoint x="-823" y="908.5" as="targetPoint" />
          </mxGeometry>
        </mxCell>
        <mxCell id="Ln-0qqn0iWtLyIjcQI3Q-234" value="" style="endArrow=none;html=1;rounded=0;exitX=1;exitY=1;exitDx=0;exitDy=0;entryX=0.5;entryY=0;entryDx=0;entryDy=0;" parent="1" source="Ln-0qqn0iWtLyIjcQI3Q-168" target="Ln-0qqn0iWtLyIjcQI3Q-151" edge="1">
          <mxGeometry width="50" height="50" relative="1" as="geometry">
            <mxPoint x="-873" y="958.5" as="sourcePoint" />
            <mxPoint x="-823" y="908.5" as="targetPoint" />
          </mxGeometry>
        </mxCell>
        <mxCell id="Ln-0qqn0iWtLyIjcQI3Q-235" value="" style="endArrow=none;html=1;rounded=0;exitX=1;exitY=0.5;exitDx=0;exitDy=0;entryX=0;entryY=0.5;entryDx=0;entryDy=0;" parent="1" source="Ln-0qqn0iWtLyIjcQI3Q-160" target="Ln-0qqn0iWtLyIjcQI3Q-181" edge="1">
          <mxGeometry width="50" height="50" relative="1" as="geometry">
            <mxPoint x="-1384" y="567" as="sourcePoint" />
            <mxPoint x="-1334" y="517" as="targetPoint" />
          </mxGeometry>
        </mxCell>
        <mxCell id="Ln-0qqn0iWtLyIjcQI3Q-236" value="" style="endArrow=none;html=1;rounded=0;exitX=1;exitY=0.5;exitDx=0;exitDy=0;entryX=0;entryY=0.5;entryDx=0;entryDy=0;" parent="1" source="Ln-0qqn0iWtLyIjcQI3Q-153" target="Ln-0qqn0iWtLyIjcQI3Q-181" edge="1">
          <mxGeometry width="50" height="50" relative="1" as="geometry">
            <mxPoint x="-1384" y="567" as="sourcePoint" />
            <mxPoint x="-1334" y="517" as="targetPoint" />
          </mxGeometry>
        </mxCell>
        <mxCell id="Ln-0qqn0iWtLyIjcQI3Q-238" value="" style="endArrow=none;html=1;rounded=0;exitX=1;exitY=0.5;exitDx=0;exitDy=0;entryX=0;entryY=0.5;entryDx=0;entryDy=0;" parent="1" source="Ln-0qqn0iWtLyIjcQI3Q-155" target="Ln-0qqn0iWtLyIjcQI3Q-181" edge="1">
          <mxGeometry width="50" height="50" relative="1" as="geometry">
            <mxPoint x="-1384" y="567" as="sourcePoint" />
            <mxPoint x="-1334" y="517" as="targetPoint" />
          </mxGeometry>
        </mxCell>
        <mxCell id="Ln-0qqn0iWtLyIjcQI3Q-239" value="" style="endArrow=none;html=1;rounded=0;exitX=1;exitY=0.5;exitDx=0;exitDy=0;entryX=0;entryY=0.5;entryDx=0;entryDy=0;" parent="1" source="Ln-0qqn0iWtLyIjcQI3Q-156" target="Ln-0qqn0iWtLyIjcQI3Q-181" edge="1">
          <mxGeometry width="50" height="50" relative="1" as="geometry">
            <mxPoint x="-1384" y="567" as="sourcePoint" />
            <mxPoint x="-1334" y="517" as="targetPoint" />
          </mxGeometry>
        </mxCell>
        <mxCell id="Ln-0qqn0iWtLyIjcQI3Q-240" value="" style="endArrow=none;html=1;rounded=0;exitX=1;exitY=0.5;exitDx=0;exitDy=0;entryX=0;entryY=0.5;entryDx=0;entryDy=0;" parent="1" source="Ln-0qqn0iWtLyIjcQI3Q-157" target="Ln-0qqn0iWtLyIjcQI3Q-181" edge="1">
          <mxGeometry width="50" height="50" relative="1" as="geometry">
            <mxPoint x="-1384" y="567" as="sourcePoint" />
            <mxPoint x="-1334" y="517" as="targetPoint" />
          </mxGeometry>
        </mxCell>
        <mxCell id="Ln-0qqn0iWtLyIjcQI3Q-241" value="" style="endArrow=none;html=1;rounded=0;exitX=1;exitY=0.5;exitDx=0;exitDy=0;entryX=0;entryY=0.5;entryDx=0;entryDy=0;" parent="1" source="Ln-0qqn0iWtLyIjcQI3Q-159" target="Ln-0qqn0iWtLyIjcQI3Q-181" edge="1">
          <mxGeometry width="50" height="50" relative="1" as="geometry">
            <mxPoint x="-1384" y="567" as="sourcePoint" />
            <mxPoint x="-1334" y="517" as="targetPoint" />
          </mxGeometry>
        </mxCell>
        <mxCell id="Ln-0qqn0iWtLyIjcQI3Q-242" value="" style="endArrow=none;html=1;rounded=0;exitX=0.5;exitY=1;exitDx=0;exitDy=0;entryX=1;entryY=0.5;entryDx=0;entryDy=0;" parent="1" source="Ln-0qqn0iWtLyIjcQI3Q-152" target="Ln-0qqn0iWtLyIjcQI3Q-163" edge="1">
          <mxGeometry width="50" height="50" relative="1" as="geometry">
            <mxPoint x="-1108" y="1335" as="sourcePoint" />
            <mxPoint x="-1058" y="1285" as="targetPoint" />
          </mxGeometry>
        </mxCell>
        <mxCell id="Ln-0qqn0iWtLyIjcQI3Q-243" value="" style="endArrow=none;html=1;rounded=0;exitX=1;exitY=0;exitDx=0;exitDy=0;entryX=0.5;entryY=1;entryDx=0;entryDy=0;" parent="1" source="Ln-0qqn0iWtLyIjcQI3Q-164" target="Ln-0qqn0iWtLyIjcQI3Q-152" edge="1">
          <mxGeometry width="50" height="50" relative="1" as="geometry">
            <mxPoint x="-1108" y="1335" as="sourcePoint" />
            <mxPoint x="-1058" y="1285" as="targetPoint" />
          </mxGeometry>
        </mxCell>
        <mxCell id="Ln-0qqn0iWtLyIjcQI3Q-244" value="" style="endArrow=none;html=1;rounded=0;entryX=0.5;entryY=1;entryDx=0;entryDy=0;exitX=0.5;exitY=0;exitDx=0;exitDy=0;" parent="1" source="Ln-0qqn0iWtLyIjcQI3Q-165" target="Ln-0qqn0iWtLyIjcQI3Q-152" edge="1">
          <mxGeometry width="50" height="50" relative="1" as="geometry">
            <mxPoint x="-1108" y="1335" as="sourcePoint" />
            <mxPoint x="-1058" y="1285" as="targetPoint" />
          </mxGeometry>
        </mxCell>
        <mxCell id="Ln-0qqn0iWtLyIjcQI3Q-246" value="" style="endArrow=none;html=1;rounded=0;entryX=1;entryY=0.5;entryDx=0;entryDy=0;exitX=0;exitY=0.5;exitDx=0;exitDy=0;" parent="1" source="Ln-0qqn0iWtLyIjcQI3Q-150" target="Ln-0qqn0iWtLyIjcQI3Q-158" edge="1">
          <mxGeometry width="50" height="50" relative="1" as="geometry">
            <mxPoint x="-1513" y="1069" as="sourcePoint" />
            <mxPoint x="-1463" y="1019" as="targetPoint" />
          </mxGeometry>
        </mxCell>
        <mxCell id="Ln-0qqn0iWtLyIjcQI3Q-247" value="" style="endArrow=none;html=1;rounded=0;exitX=1;exitY=0.5;exitDx=0;exitDy=0;entryX=0;entryY=0.5;entryDx=0;entryDy=0;" parent="1" source="Ln-0qqn0iWtLyIjcQI3Q-161" target="Ln-0qqn0iWtLyIjcQI3Q-150" edge="1">
          <mxGeometry width="50" height="50" relative="1" as="geometry">
            <mxPoint x="-1513" y="1069" as="sourcePoint" />
            <mxPoint x="-1492" y="1026" as="targetPoint" />
          </mxGeometry>
        </mxCell>
        <mxCell id="Ln-0qqn0iWtLyIjcQI3Q-249" value="" style="endArrow=none;html=1;rounded=0;exitX=1;exitY=0.5;exitDx=0;exitDy=0;entryX=0;entryY=0.5;entryDx=0;entryDy=0;" parent="1" source="Ln-0qqn0iWtLyIjcQI3Q-162" target="Ln-0qqn0iWtLyIjcQI3Q-150" edge="1">
          <mxGeometry width="50" height="50" relative="1" as="geometry">
            <mxPoint x="-1513" y="1069" as="sourcePoint" />
            <mxPoint x="-1467" y="1055" as="targetPoint" />
          </mxGeometry>
        </mxCell>
        <mxCell id="Ln-0qqn0iWtLyIjcQI3Q-250" value="" style="endArrow=none;html=1;rounded=0;entryX=1;entryY=1;entryDx=0;entryDy=0;exitX=0.5;exitY=0;exitDx=0;exitDy=0;" parent="1" source="Ln-0qqn0iWtLyIjcQI3Q-151" target="Ln-0qqn0iWtLyIjcQI3Q-171" edge="1">
          <mxGeometry width="50" height="50" relative="1" as="geometry">
            <mxPoint x="-1060" y="970.5" as="sourcePoint" />
            <mxPoint x="-1010" y="920.5" as="targetPoint" />
          </mxGeometry>
        </mxCell>
        <mxCell id="Ln-0qqn0iWtLyIjcQI3Q-251" value="" style="endArrow=none;html=1;rounded=0;entryX=0.5;entryY=1;entryDx=0;entryDy=0;exitX=0.5;exitY=0;exitDx=0;exitDy=0;" parent="1" source="Ln-0qqn0iWtLyIjcQI3Q-151" target="Ln-0qqn0iWtLyIjcQI3Q-169" edge="1">
          <mxGeometry width="50" height="50" relative="1" as="geometry">
            <mxPoint x="-1060" y="970.5" as="sourcePoint" />
            <mxPoint x="-1010" y="920.5" as="targetPoint" />
          </mxGeometry>
        </mxCell>
        <mxCell id="Ln-0qqn0iWtLyIjcQI3Q-252" value="" style="endArrow=none;html=1;rounded=0;entryX=0;entryY=1;entryDx=0;entryDy=0;exitX=0.5;exitY=0;exitDx=0;exitDy=0;" parent="1" source="Ln-0qqn0iWtLyIjcQI3Q-151" target="Ln-0qqn0iWtLyIjcQI3Q-167" edge="1">
          <mxGeometry width="50" height="50" relative="1" as="geometry">
            <mxPoint x="-1060" y="970.5" as="sourcePoint" />
            <mxPoint x="-1010" y="920.5" as="targetPoint" />
          </mxGeometry>
        </mxCell>
        <mxCell id="Ln-0qqn0iWtLyIjcQI3Q-253" value="Duracion" style="ellipse;whiteSpace=wrap;html=1;fillColor=#e1d5e7;strokeColor=#9673a6;gradientColor=none;" parent="1" vertex="1">
          <mxGeometry x="-875.75" y="851.5" width="59.5" height="26" as="geometry" />
        </mxCell>
        <mxCell id="Ln-0qqn0iWtLyIjcQI3Q-254" value="" style="endArrow=none;html=1;rounded=0;entryX=0.5;entryY=1;entryDx=0;entryDy=0;exitX=0.5;exitY=0;exitDx=0;exitDy=0;" parent="1" source="Ln-0qqn0iWtLyIjcQI3Q-151" target="Ln-0qqn0iWtLyIjcQI3Q-253" edge="1">
          <mxGeometry width="50" height="50" relative="1" as="geometry">
            <mxPoint x="-853" y="970.5" as="sourcePoint" />
            <mxPoint x="-803" y="920.5" as="targetPoint" />
          </mxGeometry>
        </mxCell>
        <mxCell id="Ln-0qqn0iWtLyIjcQI3Q-255" value="Tiempo visto" style="ellipse;whiteSpace=wrap;html=1;fillColor=#e1d5e7;strokeColor=#9673a6;gradientColor=none;" parent="1" vertex="1">
          <mxGeometry x="-1244" y="841.5" width="80" height="26" as="geometry" />
        </mxCell>
        <mxCell id="Ln-0qqn0iWtLyIjcQI3Q-256" value="Valoración" style="ellipse;whiteSpace=wrap;html=1;fillColor=#e1d5e7;strokeColor=#9673a6;gradientColor=none;" parent="1" vertex="1">
          <mxGeometry x="-1142" y="841.5" width="87" height="26" as="geometry" />
        </mxCell>
        <mxCell id="Ln-0qqn0iWtLyIjcQI3Q-257" value="" style="endArrow=none;html=1;rounded=0;exitX=1;exitY=1;exitDx=0;exitDy=0;entryX=0.5;entryY=0;entryDx=0;entryDy=0;" parent="1" source="Ln-0qqn0iWtLyIjcQI3Q-255" target="Ln-0qqn0iWtLyIjcQI3Q-208" edge="1">
          <mxGeometry width="50" height="50" relative="1" as="geometry">
            <mxPoint x="-1170" y="956.5" as="sourcePoint" />
            <mxPoint x="-1208" y="884.5" as="targetPoint" />
          </mxGeometry>
        </mxCell>
        <mxCell id="Ln-0qqn0iWtLyIjcQI3Q-258" value="" style="endArrow=none;html=1;rounded=0;entryX=0;entryY=1;entryDx=0;entryDy=0;exitX=0.5;exitY=0;exitDx=0;exitDy=0;" parent="1" source="Ln-0qqn0iWtLyIjcQI3Q-208" target="Ln-0qqn0iWtLyIjcQI3Q-256" edge="1">
          <mxGeometry width="50" height="50" relative="1" as="geometry">
            <mxPoint x="-1170" y="956.5" as="sourcePoint" />
            <mxPoint x="-1120" y="906.5" as="targetPoint" />
          </mxGeometry>
        </mxCell>
        <mxCell id="Ln-0qqn0iWtLyIjcQI3Q-259" value="" style="endArrow=none;html=1;rounded=0;entryX=1;entryY=1;entryDx=0;entryDy=0;exitX=0.5;exitY=0;exitDx=0;exitDy=0;" parent="1" source="Ln-0qqn0iWtLyIjcQI3Q-149" target="Ln-0qqn0iWtLyIjcQI3Q-177" edge="1">
          <mxGeometry width="50" height="50" relative="1" as="geometry">
            <mxPoint x="-1029" y="560" as="sourcePoint" />
            <mxPoint x="-1199" y="517" as="targetPoint" />
          </mxGeometry>
        </mxCell>
        <mxCell id="Ln-0qqn0iWtLyIjcQI3Q-260" value="" style="endArrow=none;html=1;rounded=0;entryX=1;entryY=1;entryDx=0;entryDy=0;exitX=0.5;exitY=0;exitDx=0;exitDy=0;" parent="1" source="Ln-0qqn0iWtLyIjcQI3Q-149" target="Ln-0qqn0iWtLyIjcQI3Q-176" edge="1">
          <mxGeometry width="50" height="50" relative="1" as="geometry">
            <mxPoint x="-1249" y="667" as="sourcePoint" />
            <mxPoint x="-1199" y="617" as="targetPoint" />
          </mxGeometry>
        </mxCell>
        <mxCell id="Ln-0qqn0iWtLyIjcQI3Q-261" value="" style="endArrow=none;html=1;rounded=0;entryX=0.5;entryY=1;entryDx=0;entryDy=0;exitX=0.5;exitY=0;exitDx=0;exitDy=0;" parent="1" source="Ln-0qqn0iWtLyIjcQI3Q-149" target="Ln-0qqn0iWtLyIjcQI3Q-178" edge="1">
          <mxGeometry width="50" height="50" relative="1" as="geometry">
            <mxPoint x="-1249" y="667" as="sourcePoint" />
            <mxPoint x="-1199" y="617" as="targetPoint" />
          </mxGeometry>
        </mxCell>
        <mxCell id="Ln-0qqn0iWtLyIjcQI3Q-262" value="" style="endArrow=none;html=1;rounded=0;entryX=0;entryY=1;entryDx=0;entryDy=0;exitX=0.5;exitY=0;exitDx=0;exitDy=0;" parent="1" source="Ln-0qqn0iWtLyIjcQI3Q-149" target="Ln-0qqn0iWtLyIjcQI3Q-179" edge="1">
          <mxGeometry width="50" height="50" relative="1" as="geometry">
            <mxPoint x="-1249" y="667" as="sourcePoint" />
            <mxPoint x="-1199" y="617" as="targetPoint" />
          </mxGeometry>
        </mxCell>
        <mxCell id="Ln-0qqn0iWtLyIjcQI3Q-263" value="" style="endArrow=none;html=1;rounded=0;entryX=0;entryY=0.5;entryDx=0;entryDy=0;exitX=0.5;exitY=0;exitDx=0;exitDy=0;" parent="1" source="Ln-0qqn0iWtLyIjcQI3Q-149" target="Ln-0qqn0iWtLyIjcQI3Q-180" edge="1">
          <mxGeometry width="50" height="50" relative="1" as="geometry">
            <mxPoint x="-1249" y="667" as="sourcePoint" />
            <mxPoint x="-1199" y="617" as="targetPoint" />
          </mxGeometry>
        </mxCell>
        <mxCell id="Ln-0qqn0iWtLyIjcQI3Q-264" value="Idioma config" style="ellipse;whiteSpace=wrap;html=1;fillColor=#e1d5e7;strokeColor=#9673a6;gradientColor=none;" parent="1" vertex="1">
          <mxGeometry x="-1714.5" y="973.5" width="120" height="26" as="geometry" />
        </mxCell>
        <mxCell id="Ln-0qqn0iWtLyIjcQI3Q-265" value="" style="endArrow=none;html=1;rounded=0;exitX=1;exitY=0.5;exitDx=0;exitDy=0;entryX=0;entryY=0.5;entryDx=0;entryDy=0;" parent="1" source="Ln-0qqn0iWtLyIjcQI3Q-264" target="Ln-0qqn0iWtLyIjcQI3Q-150" edge="1">
          <mxGeometry width="50" height="50" relative="1" as="geometry">
            <mxPoint x="-1304" y="1050" as="sourcePoint" />
            <mxPoint x="-1254" y="1000" as="targetPoint" />
          </mxGeometry>
        </mxCell>
        <mxCell id="Ln-0qqn0iWtLyIjcQI3Q-266" value="Peso" style="ellipse;whiteSpace=wrap;html=1;fillColor=#e1d5e7;strokeColor=#9673a6;gradientColor=none;" parent="1" vertex="1">
          <mxGeometry x="-290" y="839.5" width="100" height="23" as="geometry" />
        </mxCell>
        <mxCell id="Ln-0qqn0iWtLyIjcQI3Q-267" value="Peso" style="ellipse;whiteSpace=wrap;html=1;fillColor=#e1d5e7;strokeColor=#9673a6;gradientColor=none;" parent="1" vertex="1">
          <mxGeometry x="-348.75" y="1131.5" width="138" height="26" as="geometry" />
        </mxCell>
        <mxCell id="Ln-0qqn0iWtLyIjcQI3Q-269" value="Velocidad" style="ellipse;whiteSpace=wrap;html=1;fillColor=#e1d5e7;strokeColor=#9673a6;gradientColor=none;" parent="1" vertex="1">
          <mxGeometry x="-773" y="1141.5" width="83" height="26" as="geometry" />
        </mxCell>
        <mxCell id="Ln-0qqn0iWtLyIjcQI3Q-270" value="" style="endArrow=none;html=1;rounded=0;entryX=0;entryY=0.5;entryDx=0;entryDy=0;exitX=1;exitY=0.5;exitDx=0;exitDy=0;" parent="1" source="Ln-0qqn0iWtLyIjcQI3Q-191" target="Ln-0qqn0iWtLyIjcQI3Q-269" edge="1">
          <mxGeometry width="50" height="50" relative="1" as="geometry">
            <mxPoint x="-855" y="1156" as="sourcePoint" />
            <mxPoint x="-805" y="1106" as="targetPoint" />
          </mxGeometry>
        </mxCell>
        <mxCell id="Ln-0qqn0iWtLyIjcQI3Q-271" value="Premios" style="ellipse;whiteSpace=wrap;html=1;fillColor=#e1d5e7;strokeColor=#9673a6;gradientColor=none;" parent="1" vertex="1">
          <mxGeometry x="-290" y="810.5" width="99" height="25" as="geometry" />
        </mxCell>
        <mxCell id="Ln-0qqn0iWtLyIjcQI3Q-272" value="Año de lanzamiento" style="ellipse;whiteSpace=wrap;html=1;fillColor=#e1d5e7;strokeColor=#9673a6;gradientColor=none;" parent="1" vertex="1">
          <mxGeometry x="-350" y="1201.5" width="140.5" height="26" as="geometry" />
        </mxCell>
        <mxCell id="Ln-0qqn0iWtLyIjcQI3Q-273" value="&lt;u&gt;Titulo cast/ingles&lt;/u&gt;" style="ellipse;whiteSpace=wrap;html=1;fillColor=#e1d5e7;strokeColor=#9673a6;gradientColor=none;" parent="1" vertex="1">
          <mxGeometry x="-292" y="745.5" width="99" height="27" as="geometry" />
        </mxCell>
        <mxCell id="Ln-0qqn0iWtLyIjcQI3Q-274" value="Audio" style="ellipse;whiteSpace=wrap;html=1;fillColor=#e1d5e7;strokeColor=#9673a6;gradientColor=none;" parent="1" vertex="1">
          <mxGeometry x="-349.25" y="1166.5" width="139" height="24" as="geometry" />
        </mxCell>
        <mxCell id="Ln-0qqn0iWtLyIjcQI3Q-275" value="ATP" style="ellipse;whiteSpace=wrap;html=1;fillColor=#e1d5e7;strokeColor=#9673a6;gradientColor=none;" parent="1" vertex="1">
          <mxGeometry x="-478" y="706" width="102" height="21" as="geometry" />
        </mxCell>
        <mxCell id="Ln-0qqn0iWtLyIjcQI3Q-276" value="Audio" style="ellipse;whiteSpace=wrap;html=1;fillColor=#e1d5e7;strokeColor=#9673a6;gradientColor=none;" parent="1" vertex="1">
          <mxGeometry x="-288" y="866.5" width="98" height="24" as="geometry" />
        </mxCell>
        <mxCell id="Ln-0qqn0iWtLyIjcQI3Q-277" value="Subtitulos" style="ellipse;whiteSpace=wrap;html=1;fillColor=#e1d5e7;strokeColor=#9673a6;gradientColor=none;" parent="1" vertex="1">
          <mxGeometry x="-288" y="781.5" width="94" height="26" as="geometry" />
        </mxCell>
        <mxCell id="Ln-0qqn0iWtLyIjcQI3Q-279" value="Año lanzamiento" style="ellipse;whiteSpace=wrap;html=1;fillColor=#e1d5e7;strokeColor=#9673a6;gradientColor=none;" parent="1" vertex="1">
          <mxGeometry x="-369" y="706" width="101" height="26" as="geometry" />
        </mxCell>
        <mxCell id="Ln-0qqn0iWtLyIjcQI3Q-280" value="" style="endArrow=none;html=1;rounded=0;exitX=0;exitY=0.5;exitDx=0;exitDy=0;" parent="1" source="Ln-0qqn0iWtLyIjcQI3Q-267" edge="1">
          <mxGeometry width="50" height="50" relative="1" as="geometry">
            <mxPoint x="-711" y="1058.5" as="sourcePoint" />
            <mxPoint x="-395" y="1120.5" as="targetPoint" />
          </mxGeometry>
        </mxCell>
        <mxCell id="Ln-0qqn0iWtLyIjcQI3Q-281" value="" style="endArrow=none;html=1;rounded=0;exitX=0;exitY=0.5;exitDx=0;exitDy=0;" parent="1" source="Ln-0qqn0iWtLyIjcQI3Q-272" edge="1">
          <mxGeometry width="50" height="50" relative="1" as="geometry">
            <mxPoint x="-338" y="1112" as="sourcePoint" />
            <mxPoint x="-396" y="1119.5" as="targetPoint" />
          </mxGeometry>
        </mxCell>
        <mxCell id="Ln-0qqn0iWtLyIjcQI3Q-282" value="" style="endArrow=none;html=1;rounded=0;entryX=0.5;entryY=1;entryDx=0;entryDy=0;exitX=1;exitY=0;exitDx=0;exitDy=0;" parent="1" target="Ln-0qqn0iWtLyIjcQI3Q-275" edge="1">
          <mxGeometry width="50" height="50" relative="1" as="geometry">
            <mxPoint x="-398" y="895" as="sourcePoint" />
            <mxPoint x="-452" y="935.5" as="targetPoint" />
          </mxGeometry>
        </mxCell>
        <mxCell id="Ln-0qqn0iWtLyIjcQI3Q-283" value="" style="endArrow=none;html=1;rounded=0;exitX=0;exitY=0.5;exitDx=0;exitDy=0;entryX=1;entryY=0;entryDx=0;entryDy=0;" parent="1" source="Ln-0qqn0iWtLyIjcQI3Q-274" edge="1">
          <mxGeometry width="50" height="50" relative="1" as="geometry">
            <mxPoint x="-338" y="1148" as="sourcePoint" />
            <mxPoint x="-396" y="1120.5" as="targetPoint" />
          </mxGeometry>
        </mxCell>
        <mxCell id="Ln-0qqn0iWtLyIjcQI3Q-284" value="" style="endArrow=none;html=1;rounded=0;entryX=0.5;entryY=1;entryDx=0;entryDy=0;exitX=1;exitY=0;exitDx=0;exitDy=0;" parent="1" target="Ln-0qqn0iWtLyIjcQI3Q-279" edge="1">
          <mxGeometry width="50" height="50" relative="1" as="geometry">
            <mxPoint x="-398" y="895" as="sourcePoint" />
            <mxPoint x="-452" y="935.5" as="targetPoint" />
          </mxGeometry>
        </mxCell>
        <mxCell id="Ln-0qqn0iWtLyIjcQI3Q-286" value="" style="endArrow=none;html=1;rounded=0;entryX=0;entryY=0.5;entryDx=0;entryDy=0;exitX=1;exitY=0;exitDx=0;exitDy=0;" parent="1" target="Ln-0qqn0iWtLyIjcQI3Q-273" edge="1">
          <mxGeometry width="50" height="50" relative="1" as="geometry">
            <mxPoint x="-398" y="895" as="sourcePoint" />
            <mxPoint x="-452" y="935.5" as="targetPoint" />
          </mxGeometry>
        </mxCell>
        <mxCell id="Ln-0qqn0iWtLyIjcQI3Q-287" value="" style="endArrow=none;html=1;rounded=0;exitX=0;exitY=0.5;exitDx=0;exitDy=0;entryX=1;entryY=0;entryDx=0;entryDy=0;" parent="1" source="Ln-0qqn0iWtLyIjcQI3Q-277" edge="1">
          <mxGeometry width="50" height="50" relative="1" as="geometry">
            <mxPoint x="-502" y="985.5" as="sourcePoint" />
            <mxPoint x="-398" y="895" as="targetPoint" />
          </mxGeometry>
        </mxCell>
        <mxCell id="Ln-0qqn0iWtLyIjcQI3Q-288" value="" style="endArrow=none;html=1;rounded=0;exitX=0;exitY=0.5;exitDx=0;exitDy=0;entryX=1;entryY=0;entryDx=0;entryDy=0;" parent="1" source="Ln-0qqn0iWtLyIjcQI3Q-271" edge="1">
          <mxGeometry width="50" height="50" relative="1" as="geometry">
            <mxPoint x="-502" y="985.5" as="sourcePoint" />
            <mxPoint x="-398" y="895" as="targetPoint" />
          </mxGeometry>
        </mxCell>
        <mxCell id="Ln-0qqn0iWtLyIjcQI3Q-289" value="" style="endArrow=none;html=1;rounded=0;entryX=0;entryY=0.5;entryDx=0;entryDy=0;exitX=1;exitY=0;exitDx=0;exitDy=0;" parent="1" target="Ln-0qqn0iWtLyIjcQI3Q-266" edge="1">
          <mxGeometry width="50" height="50" relative="1" as="geometry">
            <mxPoint x="-398" y="895" as="sourcePoint" />
            <mxPoint x="-452" y="935.5" as="targetPoint" />
          </mxGeometry>
        </mxCell>
        <mxCell id="Ln-0qqn0iWtLyIjcQI3Q-290" value="" style="endArrow=none;html=1;rounded=0;entryX=0;entryY=0.5;entryDx=0;entryDy=0;exitX=1;exitY=0;exitDx=0;exitDy=0;" parent="1" target="Ln-0qqn0iWtLyIjcQI3Q-276" edge="1">
          <mxGeometry width="50" height="50" relative="1" as="geometry">
            <mxPoint x="-398" y="895" as="sourcePoint" />
            <mxPoint x="-452" y="935.5" as="targetPoint" />
          </mxGeometry>
        </mxCell>
        <mxCell id="Ln-0qqn0iWtLyIjcQI3Q-291" value="&lt;u&gt;Temporada&lt;/u&gt;" style="ellipse;whiteSpace=wrap;html=1;fillColor=#e1d5e7;strokeColor=#9673a6;gradientColor=none;" parent="1" vertex="1">
          <mxGeometry x="13.999999999999943" y="983" width="92.99" height="26" as="geometry" />
        </mxCell>
        <mxCell id="Ln-0qqn0iWtLyIjcQI3Q-292" value="Audio" style="ellipse;whiteSpace=wrap;html=1;fillColor=#e1d5e7;strokeColor=#9673a6;gradientColor=none;" parent="1" vertex="1">
          <mxGeometry x="-164.99999999999997" y="872" width="89.99" height="26" as="geometry" />
        </mxCell>
        <mxCell id="Ln-0qqn0iWtLyIjcQI3Q-293" value="Subtitulos" style="ellipse;whiteSpace=wrap;html=1;fillColor=#e1d5e7;strokeColor=#9673a6;gradientColor=none;" parent="1" vertex="1">
          <mxGeometry x="-165.00999999999996" y="949" width="90" height="26" as="geometry" />
        </mxCell>
        <mxCell id="Ln-0qqn0iWtLyIjcQI3Q-295" value="&lt;u&gt;Titulo cast/ingles&lt;/u&gt;" style="ellipse;whiteSpace=wrap;html=1;fillColor=#e1d5e7;strokeColor=#9673a6;gradientColor=none;" parent="1" vertex="1">
          <mxGeometry x="-168.5600000000001" y="911" width="97.99" height="27" as="geometry" />
        </mxCell>
        <mxCell id="Ln-0qqn0iWtLyIjcQI3Q-296" value="&lt;u&gt;Titulo&lt;/u&gt;" style="ellipse;whiteSpace=wrap;html=1;fillColor=#e1d5e7;strokeColor=#9673a6;gradientColor=none;" parent="1" vertex="1">
          <mxGeometry x="-350" y="1238.5" width="140.5" height="26" as="geometry" />
        </mxCell>
        <mxCell id="Ln-0qqn0iWtLyIjcQI3Q-297" value="" style="endArrow=none;html=1;rounded=0;entryX=1;entryY=0.5;entryDx=0;entryDy=0;exitX=0;exitY=0.5;exitDx=0;exitDy=0;" parent="1" source="Ln-0qqn0iWtLyIjcQI3Q-296" edge="1">
          <mxGeometry width="50" height="50" relative="1" as="geometry">
            <mxPoint x="-461" y="1152.5" as="sourcePoint" />
            <mxPoint x="-396" y="1117.5" as="targetPoint" />
          </mxGeometry>
        </mxCell>
        <mxCell id="Ln-0qqn0iWtLyIjcQI3Q-299" value="" style="endArrow=none;html=1;rounded=0;exitX=0;exitY=0.5;exitDx=0;exitDy=0;entryX=1;entryY=0.5;entryDx=0;entryDy=0;" parent="1" source="Ln-0qqn0iWtLyIjcQI3Q-293" edge="1">
          <mxGeometry width="50" height="50" relative="1" as="geometry">
            <mxPoint x="-383" y="1161" as="sourcePoint" />
            <mxPoint x="-394" y="1034" as="targetPoint" />
          </mxGeometry>
        </mxCell>
        <mxCell id="Ln-0qqn0iWtLyIjcQI3Q-301" value="" style="endArrow=none;html=1;rounded=0;exitX=1;exitY=0.5;exitDx=0;exitDy=0;entryX=0;entryY=0.5;entryDx=0;entryDy=0;" parent="1" target="Ln-0qqn0iWtLyIjcQI3Q-295" edge="1">
          <mxGeometry width="50" height="50" relative="1" as="geometry">
            <mxPoint x="-394" y="1034" as="sourcePoint" />
            <mxPoint x="-333" y="1111" as="targetPoint" />
          </mxGeometry>
        </mxCell>
        <mxCell id="Ln-0qqn0iWtLyIjcQI3Q-303" value="" style="endArrow=none;html=1;rounded=0;exitX=1;exitY=0.5;exitDx=0;exitDy=0;entryX=0;entryY=0.5;entryDx=0;entryDy=0;" parent="1" target="Ln-0qqn0iWtLyIjcQI3Q-292" edge="1" source="xnl_JkB2PjL908ZeRTix-9">
          <mxGeometry width="50" height="50" relative="1" as="geometry">
            <mxPoint x="-395" y="1022" as="sourcePoint" />
            <mxPoint x="-334" y="1099" as="targetPoint" />
          </mxGeometry>
        </mxCell>
        <mxCell id="Ln-0qqn0iWtLyIjcQI3Q-304" value="Calidad" style="ellipse;whiteSpace=wrap;html=1;fillColor=#e1d5e7;strokeColor=#9673a6;gradientColor=none;" parent="1" vertex="1">
          <mxGeometry x="-1132" y="1164.5" width="77" height="26" as="geometry" />
        </mxCell>
        <mxCell id="Ln-0qqn0iWtLyIjcQI3Q-305" value="" style="endArrow=none;html=1;rounded=0;exitX=0.5;exitY=1;exitDx=0;exitDy=0;entryX=0.5;entryY=0;entryDx=0;entryDy=0;" parent="1" source="Ln-0qqn0iWtLyIjcQI3Q-193" target="Ln-0qqn0iWtLyIjcQI3Q-304" edge="1">
          <mxGeometry width="50" height="50" relative="1" as="geometry">
            <mxPoint x="-1037" y="1165.5" as="sourcePoint" />
            <mxPoint x="-987" y="1115.5" as="targetPoint" />
          </mxGeometry>
        </mxCell>
        <mxCell id="Ln-0qqn0iWtLyIjcQI3Q-310" value="Peso dispositivo" style="ellipse;whiteSpace=wrap;html=1;fillColor=#e1d5e7;strokeColor=#9673a6;gradientColor=none;" parent="1" vertex="1">
          <mxGeometry x="-1190" y="1321" width="120" height="26" as="geometry" />
        </mxCell>
        <mxCell id="Ln-0qqn0iWtLyIjcQI3Q-311" value="" style="endArrow=none;html=1;rounded=0;exitX=0.5;exitY=1;exitDx=0;exitDy=0;entryX=0;entryY=0.5;entryDx=0;entryDy=0;" parent="1" source="Ln-0qqn0iWtLyIjcQI3Q-152" target="Ln-0qqn0iWtLyIjcQI3Q-310" edge="1">
          <mxGeometry width="50" height="50" relative="1" as="geometry">
            <mxPoint x="-1273" y="1271" as="sourcePoint" />
            <mxPoint x="-1223" y="1221" as="targetPoint" />
          </mxGeometry>
        </mxCell>
        <mxCell id="xnl_JkB2PjL908ZeRTix-1" value="Watch party" style="rhombus;whiteSpace=wrap;html=1;fillColor=#d5e8d4;strokeColor=#82b366;" parent="1" vertex="1">
          <mxGeometry x="-1517" y="911.5" width="80" height="37.5" as="geometry" />
        </mxCell>
        <mxCell id="xnl_JkB2PjL908ZeRTix-4" value="1" style="text;html=1;strokeColor=none;fillColor=none;align=center;verticalAlign=middle;whiteSpace=wrap;rounded=0;" parent="1" vertex="1">
          <mxGeometry x="-788" y="991.5" width="24" height="19" as="geometry" />
        </mxCell>
        <mxCell id="xnl_JkB2PjL908ZeRTix-6" value="1" style="text;html=1;strokeColor=none;fillColor=none;align=center;verticalAlign=middle;whiteSpace=wrap;rounded=0;" parent="1" vertex="1">
          <mxGeometry x="-535" y="874" width="24" height="19" as="geometry" />
        </mxCell>
        <mxCell id="xnl_JkB2PjL908ZeRTix-7" value="&lt;font style=&quot;font-size: 12px;&quot;&gt;Películas&lt;/font&gt;" style="shape=ext;margin=3;double=1;whiteSpace=wrap;html=1;align=center;fontSize=16;fillColor=#f5f5f5;fontColor=#333333;strokeColor=#666666;" parent="1" vertex="1">
          <mxGeometry x="-506" y="876.5" width="105" height="31" as="geometry" />
        </mxCell>
        <mxCell id="xnl_JkB2PjL908ZeRTix-8" value="&lt;font style=&quot;font-size: 12px;&quot;&gt;&amp;nbsp;Documentales&amp;nbsp;&lt;/font&gt;" style="shape=ext;margin=3;double=1;whiteSpace=wrap;html=1;align=center;fontSize=12;fillColor=#f5f5f5;fontColor=#333333;strokeColor=#666666;" parent="1" vertex="1">
          <mxGeometry x="-511" y="1098.5" width="114" height="40" as="geometry" />
        </mxCell>
        <mxCell id="xnl_JkB2PjL908ZeRTix-9" value="&lt;font style=&quot;font-size: 12px;&quot;&gt;Series&lt;/font&gt;" style="shape=ext;margin=3;double=1;whiteSpace=wrap;html=1;align=center;fontSize=16;fillColor=#f5f5f5;fontColor=#333333;strokeColor=#666666;" parent="1" vertex="1">
          <mxGeometry x="-509" y="1015" width="114" height="40" as="geometry" />
        </mxCell>
        <mxCell id="xnl_JkB2PjL908ZeRTix-10" value="" style="rhombus;whiteSpace=wrap;html=1;fontSize=16;opacity=50;" parent="1" vertex="1">
          <mxGeometry x="-610" y="859" width="75" height="73" as="geometry" />
        </mxCell>
        <mxCell id="xnl_JkB2PjL908ZeRTix-11" value="Cont_Peli" style="rhombus;whiteSpace=wrap;html=1;fillColor=#d5e8d4;strokeColor=#82b366;" parent="1" vertex="1">
          <mxGeometry x="-606.5" y="864" width="68" height="63" as="geometry" />
        </mxCell>
        <mxCell id="xnl_JkB2PjL908ZeRTix-12" value="" style="rhombus;whiteSpace=wrap;html=1;fontSize=16;opacity=50;" parent="1" vertex="1">
          <mxGeometry x="-611.5" y="998" width="78" height="71" as="geometry" />
        </mxCell>
        <mxCell id="xnl_JkB2PjL908ZeRTix-14" value="Cont_Serie" style="rhombus;whiteSpace=wrap;html=1;fillColor=#d5e8d4;strokeColor=#82b366;" parent="1" vertex="1">
          <mxGeometry x="-606.5" y="1001.5" width="68" height="63" as="geometry" />
        </mxCell>
        <mxCell id="xnl_JkB2PjL908ZeRTix-17" value="1" style="text;html=1;strokeColor=none;fillColor=none;align=center;verticalAlign=middle;whiteSpace=wrap;rounded=0;" parent="1" vertex="1">
          <mxGeometry x="-536" y="1014" width="24" height="19" as="geometry" />
        </mxCell>
        <mxCell id="xnl_JkB2PjL908ZeRTix-18" value="1" style="text;html=1;strokeColor=none;fillColor=none;align=center;verticalAlign=middle;whiteSpace=wrap;rounded=0;" parent="1" vertex="1">
          <mxGeometry x="-536" y="1098.5" width="24" height="19" as="geometry" />
        </mxCell>
        <mxCell id="xnl_JkB2PjL908ZeRTix-19" value="" style="curved=1;endArrow=classic;html=1;rounded=0;fontSize=12;startSize=8;endSize=8;entryX=1;entryY=0.5;entryDx=0;entryDy=0;" parent="1" target="xnl_JkB2PjL908ZeRTix-1" edge="1">
          <mxGeometry width="50" height="50" relative="1" as="geometry">
            <mxPoint x="-1432" y="999" as="sourcePoint" />
            <mxPoint x="-1397" y="950" as="targetPoint" />
            <Array as="points">
              <mxPoint x="-1421" y="958" />
            </Array>
          </mxGeometry>
        </mxCell>
        <mxCell id="xnl_JkB2PjL908ZeRTix-26" value="" style="curved=1;endArrow=classic;html=1;rounded=0;fontSize=12;startSize=8;endSize=8;exitX=0;exitY=0.5;exitDx=0;exitDy=0;" parent="1" source="xnl_JkB2PjL908ZeRTix-1" edge="1">
          <mxGeometry width="50" height="50" relative="1" as="geometry">
            <mxPoint x="-1521" y="944" as="sourcePoint" />
            <mxPoint x="-1473" y="1001" as="targetPoint" />
            <Array as="points">
              <mxPoint x="-1508" y="973" />
            </Array>
          </mxGeometry>
        </mxCell>
        <mxCell id="RSZKwD_GCCtWQyFbd0Sw-2" value="" style="curved=1;endArrow=classic;html=1;rounded=0;fontSize=12;startSize=8;endSize=8;entryX=0.353;entryY=-0.032;entryDx=0;entryDy=0;entryPerimeter=0;" parent="1" target="Ln-0qqn0iWtLyIjcQI3Q-152" edge="1">
          <mxGeometry width="50" height="50" relative="1" as="geometry">
            <mxPoint x="-1194" y="1257" as="sourcePoint" />
            <mxPoint x="-1199" y="1188" as="targetPoint" />
            <Array as="points">
              <mxPoint x="-1183" y="1216" />
              <mxPoint x="-1244" y="1216" />
            </Array>
          </mxGeometry>
        </mxCell>
        <mxCell id="CQ1vCB4usZsFolAHA2GF-2" value="&lt;font style=&quot;font-size: 12px;&quot;&gt;Capitulo&lt;/font&gt;" style="shape=ext;margin=3;double=1;whiteSpace=wrap;html=1;align=center;fontSize=16;fillColor=#f5f5f5;fontColor=#333333;strokeColor=#666666;" vertex="1" parent="1">
          <mxGeometry x="-136" y="1015.75" width="114" height="40" as="geometry" />
        </mxCell>
        <mxCell id="CQ1vCB4usZsFolAHA2GF-3" value="Serie_Temp" style="rhombus;whiteSpace=wrap;html=1;fillColor=#d5e8d4;strokeColor=#82b366;" vertex="1" parent="1">
          <mxGeometry x="-304" y="1006.5" width="76" height="58.5" as="geometry" />
        </mxCell>
        <mxCell id="CQ1vCB4usZsFolAHA2GF-4" value="" style="endArrow=none;html=1;rounded=0;exitX=1;exitY=0.5;exitDx=0;exitDy=0;entryX=0;entryY=0.496;entryDx=0;entryDy=0;entryPerimeter=0;" edge="1" parent="1" target="CQ1vCB4usZsFolAHA2GF-3">
          <mxGeometry width="50" height="50" relative="1" as="geometry">
            <mxPoint x="-395" y="1035.5" as="sourcePoint" />
            <mxPoint x="-301" y="1041" as="targetPoint" />
          </mxGeometry>
        </mxCell>
        <mxCell id="CQ1vCB4usZsFolAHA2GF-8" value="" style="endArrow=none;html=1;rounded=0;exitX=1;exitY=0.5;exitDx=0;exitDy=0;entryX=0;entryY=0.496;entryDx=0;entryDy=0;entryPerimeter=0;" edge="1" parent="1">
          <mxGeometry width="50" height="50" relative="1" as="geometry">
            <mxPoint x="-228" y="1034.5" as="sourcePoint" />
            <mxPoint x="-137" y="1035" as="targetPoint" />
          </mxGeometry>
        </mxCell>
        <mxCell id="CQ1vCB4usZsFolAHA2GF-10" value="Peso Cap" style="ellipse;whiteSpace=wrap;html=1;fillColor=#e1d5e7;strokeColor=#9673a6;gradientColor=none;" vertex="1" parent="1">
          <mxGeometry x="12.500000000000028" y="1050" width="95.99" height="26" as="geometry" />
        </mxCell>
        <mxCell id="CQ1vCB4usZsFolAHA2GF-11" value="&lt;u&gt;Num_Cap&lt;/u&gt;" style="ellipse;whiteSpace=wrap;html=1;fillColor=#e1d5e7;strokeColor=#9673a6;gradientColor=none;" vertex="1" parent="1">
          <mxGeometry x="14.000000000000028" y="1015.75" width="95.99" height="26" as="geometry" />
        </mxCell>
        <mxCell id="CQ1vCB4usZsFolAHA2GF-12" value="Fecha" style="ellipse;whiteSpace=wrap;html=1;fillColor=#e1d5e7;strokeColor=#9673a6;gradientColor=none;" vertex="1" parent="1">
          <mxGeometry x="-1192" y="799" width="80" height="26" as="geometry" />
        </mxCell>
        <mxCell id="CQ1vCB4usZsFolAHA2GF-13" value="" style="endArrow=none;html=1;rounded=0;entryX=0.5;entryY=0;entryDx=0;entryDy=0;" edge="1" parent="1" target="Ln-0qqn0iWtLyIjcQI3Q-208">
          <mxGeometry width="50" height="50" relative="1" as="geometry">
            <mxPoint x="-1156" y="826" as="sourcePoint" />
            <mxPoint x="-1142" y="894" as="targetPoint" />
          </mxGeometry>
        </mxCell>
        <mxCell id="CQ1vCB4usZsFolAHA2GF-14" value="" style="endArrow=none;html=1;rounded=0;entryX=0;entryY=0.5;entryDx=0;entryDy=0;exitX=1;exitY=0.5;exitDx=0;exitDy=0;exitPerimeter=0;" edge="1" parent="1" source="CQ1vCB4usZsFolAHA2GF-15" target="Ln-0qqn0iWtLyIjcQI3Q-150">
          <mxGeometry width="50" height="50" relative="1" as="geometry">
            <mxPoint x="-1590" y="1083" as="sourcePoint" />
            <mxPoint x="-1465" y="1027" as="targetPoint" />
          </mxGeometry>
        </mxCell>
        <mxCell id="CQ1vCB4usZsFolAHA2GF-15" value="FechaNac" style="ellipse;whiteSpace=wrap;html=1;fillColor=#e1d5e7;strokeColor=#9673a6;gradientColor=none;" vertex="1" parent="1">
          <mxGeometry x="-1718.5" y="1076" width="124.5" height="26" as="geometry" />
        </mxCell>
        <mxCell id="CQ1vCB4usZsFolAHA2GF-16" value="" style="endArrow=none;html=1;rounded=0;" edge="1" parent="1">
          <mxGeometry width="50" height="50" relative="1" as="geometry">
            <mxPoint x="-1039" y="1310" as="sourcePoint" />
            <mxPoint x="-1231" y="1290" as="targetPoint" />
          </mxGeometry>
        </mxCell>
        <mxCell id="CQ1vCB4usZsFolAHA2GF-17" value="Marca" style="ellipse;whiteSpace=wrap;html=1;fillColor=#e1d5e7;strokeColor=#9673a6;gradientColor=none;" vertex="1" parent="1">
          <mxGeometry x="-1038" y="1298" width="120" height="26" as="geometry" />
        </mxCell>
        <mxCell id="CQ1vCB4usZsFolAHA2GF-18" value="" style="endArrow=none;html=1;rounded=0;exitX=1;exitY=0.5;exitDx=0;exitDy=0;entryX=0;entryY=0.5;entryDx=0;entryDy=0;" edge="1" parent="1" target="Ln-0qqn0iWtLyIjcQI3Q-291">
          <mxGeometry width="50" height="50" relative="1" as="geometry">
            <mxPoint x="-22" y="1039" as="sourcePoint" />
            <mxPoint x="69" y="1039.5" as="targetPoint" />
          </mxGeometry>
        </mxCell>
        <mxCell id="CQ1vCB4usZsFolAHA2GF-20" value="" style="endArrow=none;html=1;rounded=0;entryX=0;entryY=0.5;entryDx=0;entryDy=0;" edge="1" parent="1" target="CQ1vCB4usZsFolAHA2GF-11">
          <mxGeometry width="50" height="50" relative="1" as="geometry">
            <mxPoint x="-20" y="1036" as="sourcePoint" />
            <mxPoint x="24" y="1006" as="targetPoint" />
          </mxGeometry>
        </mxCell>
        <mxCell id="CQ1vCB4usZsFolAHA2GF-21" value="" style="endArrow=none;html=1;rounded=0;entryX=0;entryY=0.5;entryDx=0;entryDy=0;" edge="1" parent="1" target="CQ1vCB4usZsFolAHA2GF-10">
          <mxGeometry width="50" height="50" relative="1" as="geometry">
            <mxPoint x="-19" y="1036" as="sourcePoint" />
            <mxPoint x="24" y="1039" as="targetPoint" />
          </mxGeometry>
        </mxCell>
      </root>
    </mxGraphModel>
  </diagram>
</mxfile>
